<?xml version="1.0" encoding="UTF-8" standalone="no"?>
<!-- Created with Inkscape (http://www.inkscape.org/) -->

<svg
   width="63.999996"
   height="63.999996"
   viewBox="0 0 16.933332 16.933332"
   version="1.1"
   id="svg1"
   xml:space="preserve"
   xmlns="http://www.w3.org/2000/svg"
   xmlns:svg="http://www.w3.org/2000/svg"><defs
     id="defs1" /><g
     id="layer1"><path
       style="display:inline;fill:#888a85;fill-opacity:1;stroke:none;stroke-width:1.08067"
       d="M 12.554601,1.9641598 V 2.192965 l 2.059246,2.0592465 C 17.16395,2.3518406 14.930985,-0.09432578 12.554601,1.9641598 M 6.6056653,10.201146 C 9.253238,10.087178 10.542485,8.5653687 12.325619,6.7690686 13.009421,6.0802179 14.077742,5.2795254 13.383666,4.2532712 12.134833,2.4067585 10.997083,3.5241972 9.8089379,4.7098219 8.0691708,6.4458973 6.8070255,7.6708713 6.6056653,10.201146 M 13.241016,8.1418996 c -2.289609,0.9203862 0.366266,4.7335484 -1.445568,5.9425784 -1.4298,0.9541 -5.3219925,0.24667 -7.020224,0.234985 -0.6700581,-0.0046 -1.4451431,0.03485 -1.9211869,-0.530171 -0.8393116,-0.996181 -0.366865,-3.501792 -0.366865,-4.7321716 0,-1.125914 -0.4329761,-3.3976091 0.5303478,-4.209238 C 4.0422092,3.9845509 6.2691041,4.5807672 7.5164723,4.4675989 8.0108826,4.4227437 9.0017753,3.9059934 8.1301506,3.4739916 7.4708131,3.1472053 6.4057453,3.3369908 5.6904445,3.3369908 4.6646519,3.3369908 3.2108093,3.0846307 2.28326,3.606755 0.62493911,4.5402359 1.3431462,8.3602537 1.3431462,9.9723411 c 0,1.4529649 -0.57399417,4.3692579 0.9401138,5.2215599 1.8953149,1.066887 6.0602888,0.273361 8.212093,0.269765 0.909672,-0.0015 1.961875,0.07376 2.575825,-0.738674 0.960455,-1.270948 0.599242,-5.1303631 0.169838,-6.5830924 z"
       id="path1" /></g></svg>
