<?xml version="1.0" encoding="UTF-8" standalone="no"?>
<svg width="64" height="64" viewBox="0 0 64 64" xmlns="http://www.w3.org/2000/svg">
  <!-- Transparent background - no background element -->
  
  <!-- Robot body - solid part (left and bottom) -->
  <!-- Main body -->
  <rect x="8" y="28" width="28" height="24" rx="4" fill="rgb(216, 216, 216)" stroke="rgb(0, 0, 0)" stroke-width="1.5"/>
  
  <!-- Head - solid left part (centered at x=32) -->
  <rect x="14" y="6" width="18" height="18" rx="3" fill="rgb(216, 216, 216)" stroke="rgb(0, 0, 0)" stroke-width="1.5"/>
  
  <!-- Eyes -->
  <circle cx="20" cy="15" r="2.5" fill="#66bb6a"/>
  <circle cx="28" cy="15" r="2.5" fill="#66bb6a"/>
  
  <!-- Left arm -->
  <rect x="2" y="32" width="8" height="14" rx="3" fill="rgb(216, 216, 216)" stroke="rgb(0, 0, 0)" stroke-width="1"/>
  
  <!-- Left leg -->
  <rect x="12" y="52" width="8" height="10" rx="2" fill="rgb(216, 216, 216)" stroke="rgb(0, 0, 0)" stroke-width="1"/>
  <rect x="24" y="52" width="8" height="10" rx="2" fill="rgb(216, 216, 216)" stroke="rgb(0, 0, 0)" stroke-width="1"/>
  
  <!-- Right arm - trail of smaller copies along flight path from top-right -->
  <!-- Full size right arm at destination -->
  <rect x="36" y="32" width="8" height="14" rx="3" fill="rgb(216, 216, 216)" stroke="rgb(0, 0, 0)" stroke-width="1" opacity="0.9"/>
  
  <!-- Trail of smaller right arms along flight path -->
  <!-- Scale 0.85 -->
  <g transform="translate(42, 28) scale(0.85)" opacity="0.7">
    <rect x="0" y="0" width="8" height="14" rx="3" fill="rgb(216, 216, 216)" stroke="rgb(0, 0, 0)" stroke-width="1"/>
  </g>
  <!-- Scale 0.7 -->
  <g transform="translate(47, 23) scale(0.7)" opacity="0.55">
    <rect x="0" y="0" width="8" height="14" rx="3" fill="rgb(216, 216, 216)" stroke="rgb(0, 0, 0)" stroke-width="1"/>
  </g>
  <!-- Scale 0.55 -->
  <g transform="translate(51, 18) scale(0.55)" opacity="0.4">
    <rect x="0" y="0" width="8" height="14" rx="3" fill="rgb(216, 216, 216)" stroke="rgb(0, 0, 0)" stroke-width="1"/>
  </g>
  <!-- Scale 0.4 -->
  <g transform="translate(55, 13) scale(0.4)" opacity="0.3">
    <rect x="0" y="0" width="8" height="14" rx="3" fill="rgb(216, 216, 216)" stroke="rgb(0, 0, 0)" stroke-width="1"/>
  </g>
  <!-- Scale 0.25 -->
  <g transform="translate(58, 9) scale(0.25)" opacity="0.2">
    <rect x="0" y="0" width="8" height="14" rx="3" fill="rgb(216, 216, 216)" stroke="rgb(0, 0, 0)" stroke-width="1"/>
  </g>
  
  <!-- Head right part - trail of smaller copies along flight path from top-right -->
  <!-- Full size head right part at destination (centered at x=32) -->
  <g transform="translate(30, 3) scale(0.85)" opacity="0.8">
    <rect x="0" y="0" width="18" height="18" rx="3" fill="rgb(216, 216, 216)" stroke="rgb(0, 0, 0)" stroke-width="1.5" opacity="0.9"/>
    <!-- Eye on head right -->
    <circle cx="6" cy="9" r="2.5" fill="#66bb6a" opacity="0.85"/>
    <circle cx="14" cy="9" r="2.5" fill="#66bb6a" opacity="0.85"/>
  </g>

  <!-- Trail of smaller heads along flight path -->
  <!-- Scale 0.85 -->
  <g transform="translate(37, 1) scale(0.75)" opacity="0.7">
    <rect x="0" y="0" width="18" height="18" rx="3" fill="rgb(216, 216, 216)" stroke="rgb(0, 0, 0)" stroke-width="1.5"/>
    <circle cx="6" cy="9" r="2.5" fill="#66bb6a"/>
    <circle cx="14" cy="9" r="2.5" fill="#66bb6a"/>
  </g>
  <!-- Scale 0.7 -->
  <g transform="translate(43, -2) scale(0.65)" opacity="0.55">
    <rect x="0" y="0" width="18" height="18" rx="3" fill="rgb(216, 216, 216)" stroke="rgb(0, 0, 0)" stroke-width="1.5"/>
    <circle cx="6" cy="9" r="2.5" fill="#66bb6a"/>
    <circle cx="14" cy="9" r="2.5" fill="#66bb6a"/>
  </g>
  <!-- Scale 0.55 -->
  <g transform="translate(47, -5) scale(0.55)" opacity="0.4">
    <rect x="0" y="0" width="18" height="18" rx="3" fill="rgb(216, 216, 216)" stroke="rgb(0, 0, 0)" stroke-width="1.5"/>
    <circle cx="6" cy="9" r="2.5" fill="#66bb6a"/>
    <circle cx="14" cy="9" r="2.5" fill="#66bb6a"/>
  </g>
  <!-- Scale 0.4 -->
  <g transform="translate(51, -8) scale(0.4)" opacity="0.3">
    <rect x="0" y="0" width="18" height="18" rx="3" fill="rgb(216, 216, 216)" stroke="rgb(0, 0, 0)" stroke-width="1.5"/>
    <circle cx="6" cy="9" r="2.5" fill="#66bb6a"/>
    <circle cx="14" cy="9" r="2.5" fill="#66bb6a"/>
  </g>
  <!-- Scale 0.25 -->
  <g transform="translate(54, -10) scale(0.25)" opacity="0.2">
    <rect x="0" y="0" width="18" height="18" rx="3" fill="rgb(216, 216, 216)" stroke="rgb(0, 0, 0)" stroke-width="1.5"/>
    <circle cx="6" cy="9" r="2.5" fill="#66bb6a"/>
    <circle cx="14" cy="9" r="2.5" fill="#66bb6a"/>
  </g>

</svg>
