<?xml version="1.0" encoding="utf-8"?>
<!-- This work is licensed under a 
<a rel="license" href="https://creativecommons.org/publicdomain/zero/1.0/deed">CC0 1.0</a>.
-->
<svg viewBox="0 0 500 500" xmlns="http://www.w3.org/2000/svg" xmlns:bx="https://boxy-svg.com">
  <defs>
    <filter id="outline-filter-1" color-interpolation-filters="sRGB" x="-50%" y="-50%" width="200%" height="200%" bx:preset="outline 1 7 #000">
      <feMorphology in="SourceAlpha" result="dilated" operator="dilate" radius="7"/>
      <feFlood flood-color="#000" result="flood"/>
      <feComposite in="flood" in2="dilated" operator="in" result="outline"/>
      <feMerge>
        <feMergeNode in="outline"/>
        <feMergeNode in="SourceGraphic"/>
      </feMerge>
    </filter>
    <filter id="morphology-filter-0" color-interpolation-filters="sRGB" x="-50%" y="-50%" width="200%" height="200%" bx:preset="morphology 1 dilate 6">
      <feMorphology operator="dilate" radius="6"/>
    </filter>
    <filter id="inner-shadow-filter-0" color-interpolation-filters="sRGB" x="-50%" y="-50%" width="200%" height="200%" bx:preset="inner-shadow 1 0 0 18 0.5 rgba(0,0,0,0.7)">
      <feOffset dx="0" dy="0"/>
      <feGaussianBlur stdDeviation="18"/>
      <feComposite operator="out" in="SourceGraphic"/>
      <feComponentTransfer result="choke">
        <feFuncA type="linear" slope="1"/>
      </feComponentTransfer>
      <feFlood flood-color="rgba(0,0,0,0.7)" result="color"/>
      <feComposite operator="in" in="color" in2="choke" result="shadow"/>
      <feComposite operator="over" in="shadow" in2="SourceGraphic"/>
    </filter>
  </defs>
  <rect x="365.642" y="21.825" width="78.726" height="338.085" style="stroke: rgb(0, 0, 0); paint-order: fill; fill-rule: nonzero; stroke-linejoin: bevel; filter: url('#outline-filter-1') url('#morphology-filter-0') url('#inner-shadow-filter-0'); fill: rgb(76, 18, 137);" transform="matrix(1, 0, 0, 1, 0, 3.552713678800501e-15)"/>
  <rect x="186.283" y="313.191" width="273.305" height="88.614" style="stroke: rgb(0, 0, 0); filter: url('#outline-filter-1') url('#morphology-filter-0') url('#inner-shadow-filter-0'); fill: rgb(76, 18, 137);" transform="matrix(1, 0, 0, 1, 0, 3.552713678800501e-15)"/>
  <ellipse style="stroke: rgb(0, 0, 0); filter: url('#outline-filter-1') url('#morphology-filter-0') url('#inner-shadow-filter-0'); fill: rgb(137, 18, 108);" cx="400.684" cy="359.728" rx="73" ry="76.649" transform="matrix(1, 0, 0, 1, 0, 3.552713678800501e-15)"/>
  <rect x="275.723" y="319.52" width="46.31" height="68.348" style="stroke: rgb(0, 0, 0); filter: url('#outline-filter-1') url('#inner-shadow-filter-0'); fill: rgb(76, 18, 137); transform-origin: 298.88px 353.695px;" transform="matrix(0.664652109146, -0.747153103352, 0.785412013531, 0.621643900871, -144.573879600592, -68.828571490454)"/>
  <rect x="277.133" y="317.9" width="46.546" height="67.997" style="stroke: rgb(0, 0, 0); filter: url('#outline-filter-1') url('#inner-shadow-filter-0'); fill: rgb(76, 18, 137); transform-origin: 300.408px 351.899px;" transform="matrix(-0.727442979813, -0.686168015003, 0.728684902191, -0.687339007854, -142.01162329982, 78.382962261867)"/>
  <rect x="274.356" y="321.119" width="46.08" height="68.69" style="stroke: rgb(0, 0, 0); filter: url('#outline-filter-1') url('#inner-shadow-filter-0'); fill: rgb(76, 18, 137); transform-origin: 297.394px 355.464px;" transform="matrix(-0.596049010754, -0.802947878838, 0.835684001446, -0.55194991827, -223.089399709537, -70.598667925357)"/>
  <rect x="271.672" y="324.291" width="45.628" height="69.368" style="stroke: rgb(0, 0, 0); filter: url('#outline-filter-1') url('#inner-shadow-filter-0'); fill: rgb(76, 18, 137); transform-origin: 294.484px 358.977px;" transform="matrix(0.426851123571, -0.904322147369, 0.922862112522, 0.387572050095, -219.012050024418, 77.916514332806)"/>
  <ellipse style="stroke: rgb(0, 0, 0); filter: url('#outline-filter-1') url('#inner-shadow-filter-0'); fill: rgb(76, 18, 137);" cx="75.796" cy="285.501" rx="26.863" ry="26.99" transform="matrix(1, 0, 0, 1, 0, 3.552713678800501e-15)"/>
  <ellipse style="stroke: rgb(0, 0, 0); filter: url('#outline-filter-1') url('#inner-shadow-filter-0'); fill: rgb(137, 18, 108);" cx="45.854" cy="306.137" rx="26.863" ry="26.99" transform="matrix(1, 0, 0, 1, 0, 3.552713678800501e-15)"/>
  <ellipse style="stroke: rgb(0, 0, 0); filter: url('#outline-filter-1') url('#inner-shadow-filter-0'); fill: rgb(76, 18, 137);" cx="155.967" cy="287.715" rx="26.863" ry="26.99" transform="matrix(1, 0, 0, 1, 0, 3.552713678800501e-15)"/>
  <ellipse style="stroke: rgb(0, 0, 0); filter: url('#outline-filter-1') url('#inner-shadow-filter-0'); fill: rgb(137, 18, 108);" cx="179.461" cy="307.253" rx="26.863" ry="26.99" transform="matrix(1, 0, 0, 1, 0, 3.552713678800501e-15)"/>
  <ellipse style="stroke: rgb(0, 0, 0); filter: url('#outline-filter-1') url('#inner-shadow-filter-0'); fill: rgb(137, 18, 108);" cx="116.552" cy="260.441" rx="26.863" ry="26.99" transform="matrix(1, 0, 0, 1, 0, 3.552713678800501e-15)"/>
  <ellipse style="stroke: rgb(0, 0, 0); filter: url('#outline-filter-1') url('#inner-shadow-filter-0'); fill: rgb(76, 18, 137);" cx="80.626" cy="438.774" rx="26.863" ry="26.99" transform="matrix(1, 0, 0, 1, 0, 3.552713678800501e-15)"/>
  <ellipse style="stroke: rgb(0, 0, 0); filter: url('#outline-filter-1') url('#inner-shadow-filter-0'); fill: rgb(137, 18, 108);" cx="49.716" cy="422.563" rx="26.863" ry="26.99" transform="matrix(1, 0, 0, 1, 0, 3.552713678800501e-15)"/>
  <ellipse style="stroke: rgb(0, 0, 0); filter: url('#outline-filter-1') url('#inner-shadow-filter-0'); fill: rgb(76, 18, 137);" cx="155.003" cy="434.355" rx="26.863" ry="26.99" transform="matrix(1, 0, 0, 1, 0, 3.552713678800501e-15)"/>
  <ellipse style="stroke: rgb(0, 0, 0); filter: url('#outline-filter-1') url('#inner-shadow-filter-0'); fill: rgb(137, 18, 108);" cx="187.594" cy="402.742" rx="26.863" ry="26.99" transform="matrix(1, 0, 0, 1, 0, 3.552713678800501e-15)"/>
  <ellipse style="stroke: rgb(0, 0, 0); filter: url('#outline-filter-1') url('#inner-shadow-filter-0'); fill: rgb(137, 18, 108);" cx="121.02" cy="453.419" rx="26.863" ry="26.99" transform="matrix(1, 0, 0, 1, 0, 3.552713678800501e-15)"/>
</svg>