<?xml version="1.0" encoding="UTF-8" standalone="no"?>
<!-- Created with Inkscape (http://www.inkscape.org/) -->

<svg
   version="1.1"
   id="svg1"
   width="64"
   height="64"
   viewBox="0 0 64 64"
   xmlns="http://www.w3.org/2000/svg"
   xmlns:svg="http://www.w3.org/2000/svg">
  <defs
     id="defs1" />
  <g
     id="g1">
    <g
       id="g2"
       transform="matrix(0.31414511,0,0,0.31414511,1.5279243,3.5698675)">
      <path
         style="fill:#eeeeee"
         d="M 0,90.5 V 0 h 97 97 V 90.5 181 H 97 0 Z"
         id="path32" />
      <path
         style="fill:#e5e9e3"
         d="M 84.409501,177.53622 C 75.38351,175.54216 64.003498,170.48775 56.308814,165.05535 47.831651,159.07053 37.530932,148.43613 32.156132,140.12027 27.288545,132.58917 22.558345,120.74488 20.423671,110.74252 19.535622,106.58142 18.876005,98.551302 18.873318,91.868661 18.865929,73.493656 23.240575,58.21972 32.702358,43.585022 43.864209,26.320798 61.01934,13.441896 80.171369,7.9485265 90.738811,4.9174707 107.25336,4.2631001 118.05177,6.4475575 c 20.805,4.2087315 39.40947,16.1853925 51.58654,33.2089225 5.3745,7.51355 11.54338,20.593433 13.83931,29.34352 0.95754,3.649291 1.93936,12.237119 2.23869,19.581403 0.40771,10.00365 0.13774,15.032867 -1.14749,21.375707 -3.54166,17.4788 -10.36784,30.6677 -22.38023,43.24092 -9.05802,9.48092 -19.29452,16.54053 -29.93257,20.64299 -8.39744,3.2384 -20.29871,5.74031 -22.7788,4.78861 -1.87442,-0.71928 -3.1289,-3.91046 -5.55447,-14.12963 l -1.89885,-8 0.68805,7 c 0.37843,3.85 0.71055,8.8 0.73805,11 l 0.05,4 -6.5,0.19088 c -3.575,0.10498 -9.240725,-0.41462 -12.590499,-1.15466 z M 135.62616,96.454462 c 10.01066,-1.610876 13.89183,-3.2308 31.75272,-13.252969 l 8.87888,-4.98215 -3.87888,-0.568522 c -2.13339,-0.312688 -7.58534,-0.858341 -12.11545,-1.212564 -7.77164,-0.607687 -8.50232,-0.488301 -12.94458,2.115033 -3.93468,2.30588 -7.97566,5.609054 -22.76885,18.611697 -1.31867,1.159062 -0.0275,1.076236 11.07616,-0.710525 z M 102,76.549221 c 0,-4.647928 -0.49269,-10.835428 -1.09487,-13.75 C 99.949514,58.174016 98.983302,56.710313 93.308616,51.291354 84.520883,42.899635 78.527577,40 69.970322,40 c -3.650344,0 -6.912037,0.275048 -7.248206,0.611217 -0.33617,0.33617 0.638508,1.662793 2.16595,2.94805 1.527442,1.285258 4.981681,6.487948 7.676086,11.561532 2.694406,5.073585 7.157228,11.702248 9.917384,14.730363 4.649501,5.10088 17.049085,15.09915 18.768464,15.133747 0.4125,0.0083 0.75,-3.78776 0.75,-8.435688 z"
         id="path31" />
      <path
         style="fill:#e0e6de"
         d="M 85.5,177.37911 C 76.753948,175.50225 65.321644,170.64183 57.495009,165.47286 44.019114,156.57293 30.972898,140.33202 25.131179,125.18394 20.463845,113.08114 18.657541,101.52578 19.31868,88 19.927038,75.55402 21.505909,68.138831 25.706396,58 31.278659,44.550078 38.949164,34.105537 50.787659,23.848104 58.901124,16.818214 74.519815,9.3553338 86.134566,6.9587417 97.482484,4.6172078 104.93893,4.5118803 116.5098,6.5296703 c 16.61651,2.8976768 32.63688,11.5549927 44.55155,24.0754037 13.66475,14.359467 20.1136,27.294844 23.52515,47.187786 3.74715,21.849771 -1.08924,45.16069 -13.12617,63.26681 -9.28224,13.96248 -24.27549,26.45103 -38.67827,32.21686 -7.5592,3.02616 -19.94864,5.75417 -22.77554,5.01492 -2.26,-0.591 -3.99929,-5.573 -6.71665,-19.23908 -2.03927,-10.25584 -2.30056,-32.0413 -0.48038,-40.05237 0.6873,-3.025 2.58352,-7.36963 4.2138,-9.65474 2.60758,-3.65493 2.72368,-4.09185 0.96511,-3.63198 -1.09948,0.28752 -2.67166,-0.0354 -3.49373,-0.7177 C 103.6726,104.31332 103,104.0387 103,104.38531 c 0,0.34661 -0.94106,7.26421 -2.09125,15.37245 -2.073154,14.61467 -2.075415,14.88069 -0.26127,30.74224 1.0065,8.8 1.83506,18.7 1.84125,22 l 0.0113,6 -5,0.19064 c -2.75,0.10486 -8.15,-0.48533 -12,-1.31153 z m 48.81341,-80.305973 c 12.02459,-2.024255 15.40489,-3.400756 34.06704,-13.872524 6.63684,-3.724082 8.40536,-5.122121 7,-5.533567 -1.03425,-0.302796 -6.9197,-0.858139 -13.07878,-1.234096 -10.80451,-0.659519 -11.35117,-0.593986 -15.5445,1.863471 -3.27139,1.917161 -16.9828,13.208218 -24.67384,20.318381 -0.64632,0.59751 0.0271,0.512622 12.23008,-1.541665 z M 101.84202,71.001481 C 101.53798,62.186919 101.11103,59.904316 99.184127,56.791723 96.520457,52.489009 85.802827,43.651216 80.624939,41.487756 78.460103,40.58323 73.86556,40 68.904759,40 H 60.74528 l 3.933308,4.267136 c 2.16332,2.346924 5.917126,7.990361 8.341792,12.540969 5.452299,10.232866 12.132999,17.840195 21.381389,24.347038 6.839691,4.812167 7.111061,4.909451 7.450351,2.670943 0.19366,-1.277718 0.18912,-7.04879 -0.0101,-12.824605 z"
         id="path30" />
      <path
         style="fill:#dae2d7"
         d="M 89.830856,177.97685 C 74.302054,175.35636 59.274648,167.89172 47.759568,157.07856 38.511491,148.39421 32.425076,140.21513 27.543184,129.91125 20.054477,114.10533 17.385765,94.401789 20.398547,77.161197 23.728798,58.103892 31.548356,43.196472 45.398815,29.5 59.424249,15.630498 74.217212,8.3961639 93.435992,6.0079524 110.15294,3.9306293 128.97494,8.0044665 144.05653,16.964274 c 15.33493,9.110314 29.66914,26.509415 35.80113,43.455988 8.46252,23.387301 7.64672,47.632938 -2.3292,69.224518 -4.35919,9.4349 -8.46209,15.34483 -16.46711,23.71975 -10.47013,10.95392 -23.31669,18.75941 -37.21262,22.61017 -9.60782,2.66246 -14.43795,2.66137 -15.8642,-0.004 -1.67076,-3.12185 -4.88893,-18.90417 -5.95637,-29.21085 -0.99216,-9.5798 -0.14582,-22.89584 1.94986,-30.67862 0.62128,-2.30723 2.74481,-5.98283 4.71897,-8.16798 3.41859,-3.78398 3.46403,-3.92536 0.95488,-2.97138 C 106.50394,106.1391 104,105.3789 104,103.22634 c 0,-0.85782 -0.19943,-1.36024 -0.44319,-1.11649 -0.78491,0.78492 -4.544954,28.2208 -4.576059,33.39015 -0.01655,2.75 0.96914,13.24398 2.190419,23.31995 1.92204,15.85751 2.02616,18.4429 0.77467,19.23469 -1.67526,1.05988 -5.519481,1.03519 -12.114984,-0.0778 z M 135.92431,97.055989 C 146.53051,95.27288 147.7082,94.815608 162.01593,86.925192 170.25717,82.380323 177,78.354588 177,77.979114 c 0,-0.748193 -13.40998,-1.963612 -21.76987,-1.97312 -6.14853,-0.007 -9.55101,1.846242 -19.93848,10.859949 -12.8148,11.120018 -14.96636,13.272987 -12.63328,12.641573 1.18711,-0.321271 7.15678,-1.424458 13.26594,-2.451527 z M 102.77429,75.25 C 102.04948,58.22535 100.13066,54.557536 87.026547,45.148218 L 80.553094,40.5 70.134459,40.15489 59.715824,39.80978 l 3.987225,3.84511 c 2.192974,2.114811 6.123232,7.791554 8.733906,12.614985 2.610674,4.823432 7.067862,11.312585 9.904862,14.420341 4.924214,5.394166 18.175613,16.13989 20.045453,16.25511 0.4957,0.03055 0.6665,-5.130846 0.38702,-11.695326 z"
         id="path29" />
      <path
         style="fill:#d3dfd0"
         d="M 90.803268,177.92067 C 82.436596,176.69368 70.532707,172.46671 62.0043,167.69442 53.013438,162.66334 39.271468,149.46797 33.162685,140 30.856076,136.425 27.61806,130.00679 25.967092,125.73731 20.887308,112.60076 19.636398,105.77475 19.692882,91.5 19.755961,75.558563 21.810133,66.87501 28.918678,52.5 37.534573,35.076803 49.687898,22.768391 66.5,14.439109 78.957973,8.2670082 88.628698,6 102.5,6 c 13.85395,0 23.52061,2.2620955 36,8.424365 15.71396,7.759485 27.87875,19.665962 36.34744,35.575635 4.33552,8.144907 7.96421,18.073258 8.71701,23.850359 0.26156,2.007303 0.92611,6.349641 1.47677,9.649641 1.11386,6.675117 0.50714,17.56868 -1.53962,27.64371 -4.58557,22.57215 -20.47796,44.74288 -40.5016,56.50189 -8.29295,4.87008 -20.68976,9.21746 -28.72263,10.07259 -5.03746,0.53625 -5.26295,0.4536 -6.3596,-2.33111 -0.62532,-1.58789 -2.25878,-8.28708 -3.6299,-14.88708 -2.20959,-10.63605 -2.43318,-13.64811 -1.96717,-26.5 0.28918,-7.975 1.08927,-16.19874 1.77798,-18.27497 0.68872,-2.07623 2.72954,-5.5009 4.53517,-7.61037 l 3.28297,-3.83541 -3.67902,0.11038 c -3.32016,0.0996 -3.73835,-0.18226 -4.28721,-2.88963 -0.51243,-2.527678 -0.72828,-2.055356 -1.37101,3 -0.41955,3.3 -1.39478,10.05 -2.16718,15 -1.921609,12.31486 -1.772777,20.9977 0.69166,40.35122 2.02045,15.86684 2.03272,16.5756 0.30887,17.83611 -1.969143,1.43987 -2.328668,1.44778 -10.609662,0.23334 z M 137.5,96.990774 c 6.58013,-0.9469 9.95232,-2.184137 19,-6.970995 18.18544,-9.621376 21.48279,-11.489549 21.49159,-12.176454 0.005,-0.361172 -4.37909,-0.990664 -9.74159,-1.398873 -17.26962,-1.314611 -17.39187,-1.300523 -23.33619,2.689218 -4.21371,2.828183 -18.63932,14.756508 -25.30601,20.92518 -0.49071,0.45406 1.53429,0.20851 4.5,-0.545649 2.96571,-0.754162 8.9922,-1.889254 13.3922,-2.522427 z M 102.78,75.25 C 102.47199,67.160437 101.7472,61.220664 100.79712,59 98.007936,52.480692 84.734004,41.670226 77.381494,39.930003 75.246672,39.424724 70.455916,39.292562 66.735368,39.63631 l -6.764632,0.624994 4.436381,4.742851 c 2.44001,2.608567 5.772792,7.390265 7.406183,10.625994 4.152115,8.225294 11.172883,17.205421 16.862988,21.569117 C 91.32933,79.233862 95.525,82.461655 98,84.372139 c 2.475,1.910483 4.67223,3.508314 4.88273,3.550734 C 103.09323,87.965293 103.047,82.2625 102.78,75.25 Z"
         id="path28" />
      <path
         style="fill:#d1ddcd"
         d="M 91.560838,177.7757 C 76.862102,176.06376 59.550014,167.83904 47.538815,156.86148 39.867983,149.85077 33.447772,141.01719 28.379405,130.5 23.463268,120.2987 21.473156,113.35499 19.948087,101.08224 16.524593,73.532215 29.561675,41.456854 51.172302,24.260757 59.254397,17.829639 70.364016,11.838403 79.5,8.9840918 88.294464,6.2364799 106.68754,5.2178494 116.53647,6.9329673 141.24281,11.23539 164.31198,28.840819 176.24498,52.5 c 3.12258,6.191025 7.97027,21.3427 7.21795,22.559986 -0.30548,0.494274 -0.0429,1.856252 0.58342,3.026617 0.66501,1.242592 1.13884,6.979481 1.13884,13.788688 0,8.379189 -0.59211,14.153839 -2.10401,20.519719 -3.91942,16.50289 -13.83373,33.76494 -25.40902,44.24031 -11.33624,10.25902 -26.40888,17.98263 -39.95715,20.47506 -5.94719,1.09409 -6.98007,1.05313 -8.36489,-0.33169 -2.87366,-2.87366 -6.44149,-20.24716 -7.05295,-34.34424 -0.88019,-20.29249 1.70605,-30.99862 8.92511,-36.9468 1.92821,-1.58876 2.45428,-2.38251 1.27772,-1.92789 -1.1,0.42505 -3.35,0.81048 -5,0.85653 -2.76138,0.077 -3.04324,-0.23445 -3.5436,-3.91629 -0.51632,-3.799268 -0.58259,-3.67381 -1.32058,2.5 -0.42734,3.575 -1.42022,10.65766 -2.2064,15.73923 -1.953071,12.62392 -1.795513,23.28415 0.61069,41.31868 1.12206,8.40986 1.83515,15.82479 1.58463,16.47761 -0.69614,1.81412 -3.468173,2.12485 -11.063902,1.24018 z M 134,97.904208 c 12.22517,-2.093225 15.56304,-3.478483 35.41064,-14.695861 5.45086,-3.080689 9.50086,-5.71172 9,-5.846736 -0.50085,-0.135015 -6.45661,-0.727865 -13.23501,-1.317443 -11.25124,-0.978621 -12.69113,-0.909728 -16.53637,0.791205 -2.3166,1.024741 -8.38544,5.418495 -13.48633,9.763896 -5.10088,4.345402 -11.15951,9.428084 -13.46363,11.294849 -3.37229,2.732182 -3.70174,3.256142 -1.6893,2.686632 1.375,-0.38911 7.675,-1.59356 14,-2.676542 z M 102.81931,74.018065 C 102.29827,59.404359 100.59008,55.438538 91.742292,48.301108 81.311064,39.886335 76.557415,38.278948 65.579713,39.45456 l -6.384955,0.683771 4.157482,3.832233 c 2.286615,2.107728 6.095288,7.469104 8.463717,11.914168 5.989689,11.241438 11.816024,18.003228 21.700792,25.184988 4.665788,3.389921 8.535451,6.673519 8.599251,7.296886 0.0638,0.623367 0.34076,0.247451 0.61546,-0.835369 0.27469,-1.082819 0.31423,-7.163747 0.0879,-13.513172 z"
         id="path27" />
      <path
         style="fill:#cad9c5"
         d="M 83,175.95736 C 78.875,174.89447 71.45,172.02028 66.5,169.57027 49.918153,161.36304 36.904825,148.00651 28.487326,130.55506 21.515785,116.10142 20.511375,111.15535 20.556334,91.5 20.592739,75.584356 20.775087,73.957822 23.415104,66 26.950707,55.342605 30.551877,48.168635 36.215524,40.5 45.626542,27.757386 59.135136,16.960874 72.223497,11.721244 86.229127,6.1144059 103.90811,4.5177129 118.53364,7.5387008 c 16.37344,3.3820252 30.24651,11.2755042 42.66849,24.2774382 11.53566,12.074242 19.19323,26.52537 22.00538,41.52789 1.77774,9.484063 1.53491,32.968221 -0.41522,40.155971 -5.34183,19.68882 -15.14865,35.12666 -29.67796,46.71885 -11.24885,8.97489 -25.38318,15.34929 -38.34475,17.293 -4.11476,0.61704 -4.74861,0.44431 -6.09751,-1.66161 -2.45801,-3.83747 -5.83567,-21.52996 -6.41248,-33.58912 -0.64555,-13.49621 0.96074,-25.11183 4.26355,-30.8313 4.50215,-7.79635 13.29152,-11.786708 31.70561,-14.394298 8.07805,-1.14392 9.86717,-1.867845 24,-9.711031 8.39919,-4.661231 15.65593,-8.848294 16.1261,-9.304583 0.96877,-0.940169 -11.34854,-2.31397 -21.85485,-2.437562 -6.42214,-0.07555 -7.41276,0.203569 -12,3.381133 -2.75,1.904913 -8.75537,6.801057 -13.34526,10.880319 -12.86572,11.434382 -24.10026,17.428472 -26.26435,14.013092 -0.47287,-0.74629 -0.92011,-2.93189 -0.99387,-4.85689 -0.11651,-3.0406 -0.24053,-2.843714 -0.94491,1.5 -4.757343,29.33749 -4.994909,36.29009 -2.0295,59.39547 1.07676,8.38973 1.71163,15.89541 1.41083,16.67929 -0.78678,2.05032 -10.138721,1.75166 -19.33294,-0.6174 z M 102.7915,73.5 C 102.44894,63.788459 101.96427,60.721739 100.25002,57.419031 97.99793,53.080109 87.821897,44.102167 82,41.317707 77.794526,39.30634 69.798117,38.503268 63.451916,39.45494 l -4.636422,0.695274 3.842253,3.300912 c 2.134013,1.833349 6.277461,7.604345 9.319638,12.980396 6.73514,11.902154 12.811568,18.844985 21.970189,25.102793 3.862871,2.639383 7.350896,5.736409 7.751156,6.882281 0.68766,1.96862 0.74947,1.945668 1.12191,-0.416596 0.21678,-1.375 0.20367,-7.9 -0.0291,-14.5 z"
         id="path26" />
      <path
         style="fill:#c2d5bc"
         d="M 83.807391,175.96357 C 68.911881,172.30076 56.147047,165.00733 45.063204,153.82635 28.698526,137.31825 20,115.86057 20,92 20,66.990709 29.344453,45.357495 47.619384,28.058751 54.370733,21.668036 58.187345,19.002641 66.302017,15.011422 80.584917,7.9863454 86.765323,6.538928 102.5,6.5340512 c 10.49993,-0.00325 14.49988,0.4277944 20.79918,2.2413916 14.37257,4.1379292 27.63907,12.1699122 37.75359,22.8572932 12.36841,13.068909 19.45302,27.603255 22.8743,46.927459 2.57312,14.533638 0.24596,34.092925 -5.72618,48.127245 -4.29699,10.09778 -9.35955,17.63778 -17.59484,26.20514 -12.00295,12.48694 -25.17554,19.90203 -41.94923,23.61398 -6.76294,1.49661 -8.03809,1.54074 -9.25841,0.32042 -0.77838,-0.77838 -2.6155,-6.57038 -4.08248,-12.87111 -2.18358,-9.37858 -2.6802,-13.99449 -2.73876,-25.45587 -0.0434,-8.49275 0.46527,-16.36025 1.29308,-20 1.11729,-4.91256 2.20422,-6.83475 5.99718,-10.60576 5.65739,-5.62464 12.0686,-8.162874 25.74738,-10.193502 10.74728,-1.595444 11.74396,-2.004258 31.83541,-13.058093 l 12.95022,-7.124901 -3.95022,-0.659154 C 174.2776,76.496055 167.55,75.885114 161.5,75.500943 l -11,-0.698493 -6,4.06965 c -3.3,2.238308 -9.6,7.286552 -14,11.21832 -8.90557,7.957877 -13.46289,11.11068 -19.62313,13.57552 -3.96241,1.58545 -4.22659,1.57628 -5.51924,-0.19153 -0.7467,-1.02117 -1.41675,-3.683161 -1.489,-5.91554 L 103.73725,93.5 l -0.81945,5 c -0.4507,2.75 -1.75147,11.975 -2.8906,20.5 -2.199983,16.46414 -2.11198,19.40917 1.38526,46.35785 0.7239,5.57818 1.10409,10.70465 0.84487,11.39215 -0.68575,1.81873 -9.359039,1.44903 -18.449939,-0.78643 z M 101.27751,59.887725 C 99.791776,55.431486 98.350956,53.586871 92.5,48.650296 82.738387,40.414216 79.378397,39.048671 68.809017,39.021962 c -4.780041,-0.01208 -8.929185,0.363457 -9.220321,0.834524 -0.291135,0.471068 1.148643,2.204948 3.199507,3.853068 2.2925,1.842303 5.651553,6.54853 8.720321,12.21767 6.009537,11.101822 12.220454,18.294931 22.384683,25.924586 4.956971,3.720891 7.780963,6.570065 8.106793,8.179069 0.275,1.358017 0.62488,-3.66908 0.77751,-11.171326 0.22278,-10.95073 -0.073,-14.691726 -1.5,-18.971828 z"
         id="path25" />
      <path
         style="fill:#bbd1b4"
         d="M 87,176.52686 C 78.235548,174.73221 68.037492,170.77505 60.717682,166.3285 52.993114,161.63607 42.022343,151.29107 36.369089,143.36875 30.867518,135.65899 24.793555,122.68549 22.385064,113.5 20.979052,108.13776 20.563327,102.99052 20.608197,91.5 20.660146,78.196204 20.969343,75.505279 23.342506,67.703414 28.134948,51.948077 35.771732,39.251427 46.723383,28.831187 63.056713,13.290405 85.151595,4.9745056 106.5,6.3329308 c 12.00735,0.7640424 20.14434,2.9311754 31.1498,8.2961612 19.18939,9.354519 33.92522,25.840064 41.918,46.895281 1.45641,3.836595 2.78195,8.775627 2.94566,10.975627 0.1637,2.2 0.67764,4.9 1.14209,6 0.46445,1.1 0.79587,8.075 0.73649,15.5 -0.0922,11.52771 -0.49528,14.78514 -2.75912,22.29659 -4.89627,16.24586 -12.45203,28.57376 -24.4495,39.89157 -3.86998,3.65074 -10.10692,8.42253 -13.85987,10.60398 -12.57752,7.31084 -30.88743,12.50112 -33.8057,9.58285 -1.78928,-1.78928 -5.43483,-17.57526 -6.76901,-29.31116 -1.22444,-10.77059 0.10372,-26.15562 2.85063,-33.02082 0.89978,-2.24878 3.44539,-5.63749 5.6569,-7.53046 4.90301,-4.1968 13.07954,-7.001144 26.0067,-8.919662 9.3666,-1.390095 10.44077,-1.825099 26.45144,-10.711952 19.22397,-10.67042 19.25861,-10.231406 -0.89677,-11.363762 L 150.5,74.825147 l -6,3.97883 c -3.3,2.188357 -9.825,7.412825 -14.5,11.60993 -8.95405,8.038739 -22.23702,15.749073 -24.03471,13.951383 -1.51202,-1.51202 -2.8999,-14.666365 -2.93999,-27.86529 -0.02,-6.6 -0.52602,-13.8 -1.12439,-16 -1.32684,-4.878417 -10.139602,-13.876763 -18.01141,-18.390716 -5.001282,-2.867899 -6.087564,-3.091192 -15.080483,-3.0999 -5.330041,-0.0052 -9.918069,0.358049 -10.195618,0.807133 -0.277549,0.449084 0.813962,1.595431 2.42558,2.547437 3.304606,1.952079 7.044773,7.107071 12.050763,16.609308 4.106088,7.794068 13.242559,17.819703 21.105095,23.159049 3.166501,2.15033 6.218053,4.770656 6.781223,5.822948 1.64597,3.075524 1.1875,16.075231 -1.123697,31.862261 -2.147506,14.66889 -2.147523,14.67078 -0.276799,31.17613 1.028966,9.07849 1.882896,18.75635 1.897636,21.50635 l 0.0268,5 -4,0.17891 c -2.2,0.0984 -6.925,-0.42002 -10.5,-1.15205 z"
         id="path24" />
      <path
         style="fill:#b3ccab"
         d="M 89.830856,176.97685 C 73.545637,174.22872 59.203522,166.94975 46.632736,155.05277 35.515945,144.53185 27.136767,130.24047 22.856252,114.5 21.090031,108.00519 20.680706,103.77185 20.680706,92 c 0,-11.767212 0.408762,-15.997571 2.168869,-22.44602 C 32.411242,34.523191 61.737073,9.4820059 96.723589,6.4733178 112.27642,5.1358418 130.45714,9.7235272 144.69391,18.578051 c 9.97066,6.201223 20.53604,16.772231 26.75161,26.765859 5.53258,8.895479 11.86088,25.803853 11.13838,29.760257 -0.26156,1.432291 0.0626,3.143546 0.72027,3.802788 0.82144,0.823361 1.15391,5.330369 1.06193,14.395833 -0.0992,9.779292 -0.66097,15.163812 -2.16903,20.790602 -6.62347,24.7131 -22.64738,44.62794 -44.86844,55.76341 -7.27053,3.64342 -19.26488,7.1432 -24.48098,7.1432 -3.28333,0 -3.80922,-0.36018 -4.74533,-3.25 -2.15049,-6.63865 -4.03271,-16.54406 -5.04906,-26.5713 -1.17686,-11.61094 0.027,-26.83953 2.63747,-33.36377 1.93894,-4.84589 8.13534,-10.22238 14.17586,-12.30011 2.54838,-0.87655 9.64798,-2.444107 15.77689,-3.483454 11.91222,-2.020083 13.26802,-2.58544 33.27056,-13.873539 12.31023,-6.947075 12.38502,-7.011097 8.94422,-7.656596 -1.9084,-0.358017 -9.29472,-0.729756 -16.41404,-0.826086 L 148.5,75.5 144,78.639061 c -2.475,1.726483 -8.325,6.474381 -13,10.550883 -4.675,4.076502 -9.91081,8.395258 -11.63513,9.597236 -4.80129,3.34686 -11.90035,6.11794 -13.36081,5.21533 -0.94609,-0.58472 -1.48906,-6.187885 -2.02392,-20.886013 C 103.28921,64.129844 103.1041,62.741196 100.60064,57.764788 97.812258,52.222016 90.393856,45.369797 82.721268,41.25 79.154678,39.334919 77.00289,39 68.265467,39 62.61946,39 58,39.280768 58,39.623928 c 0,0.343161 1.973684,2.361235 4.385964,4.484609 2.694053,2.3714 6.411739,7.517439 9.637404,13.340142 5.785271,10.443089 12.535918,17.995027 22.338402,24.989934 3.524342,2.514918 6.67857,5.58256 7.00941,6.816982 C 102.49263,93.440033 101.9978,103.45246 100,117 c -1.094934,7.425 -1.992861,15.73069 -1.995394,18.45708 -0.0025,2.7264 0.944365,12.73675 2.104224,22.24522 1.15985,9.50847 1.84897,17.96528 1.53138,18.79291 -0.63139,1.64539 -4.079654,1.78602 -11.809354,0.48164 z"
         id="path23" />
      <path
         style="fill:#acc8a3"
         d="M 88.5,176.49677 C 75.032527,173.95194 64.078295,168.99886 52.853942,160.37901 43.024449,152.83036 33.35588,140.47241 27.947704,128.54494 26.394186,125.11873 24.203306,118.71288 23.079081,114.30973 16.268104,87.63377 21.887048,60.279289 38.709545,38.216562 45.809345,28.905164 55.194989,21.135545 66.226345,15.437618 78.464348,9.1164315 87.811128,6.8552292 102,6.7831428 c 13.87484,-0.070491 21.82284,1.6940077 34.5,7.6591802 16.39428,7.714246 29.09772,20.002878 37.90553,36.667784 5.3619,10.145056 9.28325,22.355036 7.76647,24.182641 -0.76486,0.921607 -3.2144,1.067579 -9.35411,0.557426 -4.57484,-0.380127 -11.73079,-0.726923 -15.90211,-0.770657 -7.32045,-0.07675 -7.78995,0.06406 -13.5,4.049016 -3.25368,2.270693 -9.64663,7.448479 -14.20656,11.506191 C 120.99832,97.941298 110.94344,104 107.02852,104 c -1.11569,0 -2.05604,-0.1125 -2.08968,-0.25 -0.0336,-0.1375 -0.41177,-9.521979 -0.84031,-20.854397 -0.69106,-18.274875 -1.0296,-21.121759 -2.99436,-25.180415 C 98.690553,52.72932 89.329869,44.338774 82.434276,40.980235 79.194656,39.402359 76.299232,39 68.184276,39 62.582924,39 58,39.280768 58,39.623928 c 0,0.343161 1.933361,2.325741 4.296358,4.405734 2.486285,2.188515 6.090457,7.11516 8.554801,11.693798 5.920554,11.00012 11.852777,18.208649 19.674193,23.907059 11.588488,8.442965 10.821358,7.450772 11.275558,14.583775 0.23238,3.64939 -0.50787,12.831366 -1.6941,21.013526 -1.158745,7.9926 -2.109754,17.39854 -2.113352,20.90209 -0.0036,3.50355 0.949267,13.96086 2.117482,23.23847 1.78077,14.14239 1.90303,17.00837 0.75654,17.73468 -1.756764,1.11293 -3.79907,1.01281 -12.36748,-0.60629 z m 20.83578,-0.63444 c -0.60257,-0.74928 -2.14602,-5.63733 -3.4299,-10.86233 -1.98417,-8.07502 -2.33968,-12.12496 -2.3701,-27 -0.0373,-18.23009 0.67806,-22.55825 4.66837,-28.24614 1.0596,-1.51038 3.91584,-3.91195 6.3472,-5.33682 5.23692,-3.06904 12.01269,-4.979206 22.94865,-6.46949 8.19838,-1.117223 11.35375,-2.518788 35.7718,-15.889238 4.27449,-2.340558 8.39579,-4.016112 9.15845,-3.723453 2.11874,0.813038 2.98971,13.907281 1.61706,24.311111 -3.70101,28.05131 -19.51597,51.96442 -43.13728,65.22598 -11.40005,6.40025 -29.22534,10.91124 -31.57425,7.99038 z"
         id="path22" />
      <path
         style="fill:#a4c499"
         d="M 88.834478,176.43347 C 62.994724,171.75782 41.833115,155.61947 29.914922,131.5 22.718027,116.93527 20.761384,108.49182 20.761384,92 c 0,-10.620481 0.455435,-15.206382 2.135207,-21.5 2.519769,-9.440839 7.39756,-20.097764 12.923498,-28.235069 2.186043,-3.219092 7.791166,-9.465569 12.455828,-13.88106 C 54.700893,22.302095 59.029181,19.217074 66.12856,15.659258 78.846397,9.285783 88.44736,7 102.5,7 c 22.87261,0 41.72693,8.069393 57.56135,24.635472 7.77456,8.133804 11.99472,14.122853 16.03414,22.754887 3.93992,8.41942 7.15603,19.758126 5.94709,20.967065 -0.58214,0.582135 -6.34972,0.541811 -15.23959,-0.106549 -14.01729,-1.022313 -14.40287,-0.99611 -19.30299,1.311799 -2.75,1.295222 -9.95,6.687826 -16,11.983565 C 121.36868,97.414472 111.17853,104 107.58753,104 c -0.80822,0 -1.78521,-0.51084 -2.17109,-1.1352 -0.38587,-0.62436 -1.00751,-9.961861 -1.38141,-20.750001 C 103.19582,57.901089 102.52047,55.912845 92.367175,47.76426 81.500229,39.042932 80.131238,38.535862 68.093864,38.773502 58.264095,38.96756 54.752379,39.653893 57.891606,40.76744 61.461039,42.03359 66.939488,48.63073 71.5,57.154648 c 3.548004,6.63147 7.032794,11.383935 12,16.365286 3.85,3.860964 9.138322,8.360964 11.751827,10 3.310002,2.075839 5.094513,4.015528 5.881203,6.392641 1.30286,3.936772 0.59381,16.426065 -1.659467,29.229775 -1.996916,11.34702 -1.851219,21.81179 0.562367,40.39264 1.55449,11.9671 1.76201,16.00356 0.87756,17.06925 -1.369131,1.6497 -2.073265,1.63974 -12.079012,-0.17077 z m 20.213412,-1.344 c -2.43876,-4.55685 -5.16692,-20.10275 -5.73065,-32.65502 -0.93993,-20.92861 1.8101,-31.48312 9.60918,-36.87971 5.06446,-3.50436 10.63295,-5.26089 23.53011,-7.422355 10.95809,-1.836493 11.70243,-2.132187 27.7145,-11.009781 C 173.22073,82.105172 181.15082,78 181.79346,78 c 1.93184,0 2.70996,4.921633 2.52963,16 -0.49431,30.36789 -16.27662,57.66286 -42.19073,72.96747 -7.47284,4.41337 -19.08818,8.56985 -26.78513,9.58488 -4.61416,0.60849 -5.27262,0.45557 -6.29934,-1.46288 z"
         id="path21" />
      <path
         style="fill:#9dc092"
         d="M 83.333219,175.09098 C 69.144531,171.60303 53.466129,162.32446 43.715514,151.645 33.764861,140.74644 26.363842,126.78777 22.855149,112.30135 19.966939,100.37673 19.974157,82.741655 22.871743,71.757845 27.275182,55.065836 32.812836,44.710231 43.46635,33.245212 55.605058,20.181867 69.839639,11.899437 85.991628,8.5017611 101.14225,5.3147289 120.56182,7.2934583 134.46143,13.440521 148.70767,19.740887 163.88698,33.227102 171.88515,46.690022 176.61558,54.65251 182,68.673383 182,73.028792 182,75.787956 181.73616,76 178.30295,76 c -2.03337,0 -8.75445,-0.493829 -14.93572,-1.097398 -11.22623,-1.096184 -11.24408,-1.094455 -16.12643,1.562856 -2.68827,1.463139 -8.62089,5.894468 -13.1836,9.847398 -4.5627,3.952929 -10.52969,8.851769 -13.25997,10.88631 -6.17952,4.604834 -13.4519,7.546164 -14.95106,6.047004 -0.62688,-0.62688 -1.35615,-9.384355 -1.78236,-21.403585 -0.64126,-18.08379 -0.96278,-20.810724 -2.89558,-24.558624 C 98.519674,52.14815 88.426274,43.547168 81.11842,40.198731 76.176551,37.934382 74.994323,37.788959 66.649279,38.418927 c -4.998157,0.377311 -9.322697,0.921158 -9.610089,1.208549 -0.287391,0.287391 0.237478,0.947851 1.166376,1.467688 4.437479,2.483339 7.739364,6.466588 12.794434,15.434649 6.58632,11.684608 11.844177,17.772735 21.86851,25.321774 5.17792,3.899343 7.76721,6.577384 8.36179,8.648413 1.00038,3.484455 0.25431,15.15558 -1.789897,28 -1.936912,12.17026 -1.77802,24.1211 0.556853,41.88296 1.076034,8.18563 1.715294,15.27313 1.420574,15.75 -0.86775,1.40404 -10.359023,0.85718 -18.084611,-1.04198 z M 109.00562,174.75 c -1.42042,-3.35885 -3.69703,-13.24919 -5.07341,-22.04053 -1.37863,-8.80577 -0.73291,-29.81465 1.11292,-36.20947 0.71868,-2.48985 2.92312,-5.71601 5.83898,-8.54525 5.43347,-5.27206 10.43922,-7.13405 26.22687,-9.755609 10.13899,-1.683592 11.17856,-2.104686 27.09424,-10.974954 C 173.30811,82.150884 181.25227,78 181.85891,78 c 1.91896,0 2.41153,4.767504 1.89357,18.327365 -0.40833,10.689495 -1.01992,14.774945 -3.24441,21.672635 -3.33938,10.35474 -6.41119,16.62042 -12.01137,24.5 C 164.07495,148.72151 155.07432,157.99681 149,162.59168 140.93842,168.68979 119.6931,177 112.16467,177 c -1.34072,0 -2.58117,-0.8835 -3.15905,-2.25 z"
         id="path20" />
      <path
         style="fill:#95bb88"
         d="M 85.365317,175.50683 C 77.730553,173.84642 68.689661,170.23299 61.22121,165.857 53.891851,161.56251 37.493545,145.15201 33.145387,137.7603 31.30035,134.6238 28.729226,129.42945 27.431778,126.21729 22.95353,115.13027 21.75238,108.91647 21.300713,94.5 20.906158,81.906472 21.117471,79.508346 23.404116,70.629098 28.450404,51.033904 38.645633,35.362236 54,23.59842 62.119379,17.377721 67.740979,14.396135 78.158004,10.785488 87.077522,7.6938923 88.178354,7.547457 102.5,7.547457 c 14.36193,0 15.40411,0.1397561 24.5,3.28546 16.34519,5.652784 31.13596,16.492349 40.59865,29.75313 2.44389,3.424802 6.25944,10.102158 8.479,14.838571 4.01875,8.575794 6.91899,18.912071 5.65982,20.171241 -0.36388,0.363882 -7.20172,0.112586 -15.19519,-0.558437 -13.98739,-1.174188 -14.69348,-1.142182 -18.78794,0.851627 -2.33989,1.139417 -9.73956,6.759922 -16.44372,12.490012 -11.58116,9.898493 -22.00522,16.335849 -24.74828,15.283239 -1.58816,-0.60944 -2.54593,-10.441469 -2.55523,-26.230799 -0.009,-15.836975 -1.4308,-20.683363 -7.819209,-26.658972 C 93.538358,48.294191 88.79451,44.556066 85.646018,42.465585 80.494747,39.045333 79.149324,38.626114 72.210743,38.279299 67.969834,38.067322 62.475,38.275731 60,38.742429 l -4.5,0.848542 4.168893,2.783727 c 4.467712,2.983259 6.950717,6.267965 12.703871,16.805637 4.572821,8.375732 12.055356,16.629666 21.239425,23.429068 6.295556,4.660898 7.186581,5.730684 7.760041,9.316935 0.72056,4.506147 0.30728,9.455152 -2.396759,28.700782 -1.960583,13.9542 -1.787669,19.17057 1.453529,43.84909 0.78976,6.01332 1.21477,11.29117 0.94445,11.72855 -0.73035,1.18173 -9.028836,0.81993 -16.008133,-0.69793 z M 108.89001,174.25 c -0.58326,-1.5125 -2.01166,-6.8 -3.17421,-11.75 -1.65885,-7.06317 -2.12253,-12.33565 -2.15462,-24.5 -0.0501,-18.98496 1.37851,-24.90591 7.3,-30.25562 5.01403,-4.52987 12.11755,-7.12786 25.13882,-9.194066 11.05618,-1.754389 10.14646,-1.363991 37.18854,-15.95914 8.33621,-4.499217 8.73158,-4.608949 9.75,-2.706017 1.59268,2.975946 1.27732,21.154133 -0.51775,29.844623 -3.37954,16.36137 -10.29206,29.85606 -21.2361,41.45732 -7.74592,8.21108 -16.32467,14.57968 -25.29123,18.77542 C 129.66515,172.87694 115.55844,177 111.81529,177 c -1.11056,0 -2.29371,-1.11226 -2.92528,-2.75 z"
         id="path19" />
      <path
         style="fill:#8eb780"
         d="M 85.560708,175.34963 C 67.166117,171.40707 50.547958,160.65722 38.357985,144.81544 32.532585,137.2449 26.709446,125.50724 23.814379,115.5 21.826636,108.62907 21.505981,105.31243 21.542377,92 21.57401,80.429869 22.031586,74.85199 23.347127,70 25.860899,60.728682 34.021825,44.515914 39.688903,37.534882 46.801933,28.772645 57.289575,20.433079 67.498573,15.421181 80.574506,9.00182 87.066929,7.5388345 102.5,7.5340512 c 10.5647,-0.00327 14.48804,0.424019 20.94341,2.2809609 15.96258,4.5917719 31.43105,14.8206679 41.49411,27.4389779 2.73964,3.435305 6.94819,10.07101 9.35232,14.74601 4.94163,9.60935 8.58467,21.525494 7.05,23.060157 -0.63863,0.638631 -6.04159,0.567419 -15.54128,-0.204838 l -14.56231,-1.183812 -4.64228,2.720554 c -2.55325,1.496306 -9.63696,7.001813 -15.74158,12.234462 -10.53671,9.031676 -22.92863,16.630567 -24.52199,15.037207 -1.19039,-1.19039 -2.22353,-13.248094 -2.28463,-26.66373 -0.0313,-6.875 -0.54083,-14.3 -1.13228,-16.5 -0.77489,-2.882341 -2.975541,-5.84456 -7.875944,-10.601512 -3.740323,-3.630831 -9.192258,-7.793331 -12.115411,-9.25 -4.577378,-2.281003 -6.501665,-2.634657 -13.868479,-2.548808 -4.704511,0.05482 -9.671288,0.410873 -11.037283,0.79122 -2.423682,0.674849 -2.375409,0.766406 2,3.793395 4.232113,2.927853 5.828997,5.149046 13.527186,18.815705 3.630825,6.445834 12.296603,15.547252 20.155339,21.168576 3.409394,2.438727 6.504012,5.395388 6.876942,6.57036 1.21538,3.829332 0.522,17.265214 -1.593264,30.873154 -1.845003,11.86931 -1.948903,14.59086 -0.949008,24.85824 0.617554,6.34132 1.680516,15.60103 2.362142,20.57714 0.68162,4.97611 1.05893,9.58861 0.83847,10.25 -0.53136,1.59407 -7.010403,1.40894 -15.673472,-0.44784 z M 109.60639,174.75 c -2.15796,-3.37248 -5.64189,-20.95937 -6.30358,-31.82046 -0.68603,-11.26067 1.00628,-24.65491 3.80921,-30.14912 1.06827,-2.09398 3.81387,-5.16298 6.10134,-6.82002 4.90295,-3.55168 11.47779,-5.61091 23.85083,-7.470045 9.44145,-1.418645 13.44763,-3.145522 33.43581,-14.412603 4.95,-2.790251 9.76711,-5.074212 10.70469,-5.075468 1.16872,-0.0016 1.91874,1.138709 2.3855,3.626752 1.02683,5.473499 -0.23686,24.017054 -2.13785,31.370964 -2.24891,8.69982 -8.41218,21.79173 -13.81403,29.34352 -8.26217,11.5505 -20.63496,21.66933 -33.39776,27.31364 -4.55026,2.01234 -19.7903,6.31003 -22.4675,6.33583 -0.39982,0.004 -1.37482,-1.00549 -2.16666,-2.24299 z"
         id="path18" />
      <path
         style="fill:#86b377"
         d="M 91,176.33879 C 70.0188,173.07539 49.656353,160.55039 37.358122,143.34352 31.89353,135.69782 25.811644,122.72825 23.363457,113.5 c -1.442181,-5.43619 -1.837643,-10.35103 -1.770185,-22 0.07701,-13.298695 0.395235,-16.020783 2.805697,-24 C 31.475347,44.07546 47.343538,25.131906 68.32559,15.060104 78.800988,10.031704 86.178304,8.1181691 98,7.363128 c 11.1034,-0.709164 23.53424,1.2578573 33.72108,5.335927 8.74117,3.499331 20.40613,11.268151 27.35892,18.220945 3.1545,3.154503 8.00147,9.206632 10.77103,13.449175 7.22785,11.071953 13.95301,29.397835 11.37337,30.992137 -0.52536,0.324694 -7.32467,0.07212 -15.10957,-0.561265 -12.90674,-1.05011 -14.4801,-0.996284 -17.8499,0.610657 -4.44844,2.121314 -9.08164,5.661472 -19.99211,15.275663 -7.60429,6.700817 -12.5646,9.953273 -18.78866,12.319653 -1.9941,0.75816 -2.64658,0.559 -3.52089,-1.07465 -0.59025,-1.10289 -1.40626,-10.9099 -1.81335,-21.793344 C 103.45608,61.58867 103.25519,60.088235 100.94077,56.169221 98.025224,51.232322 89.499215,43.956103 82.553656,40.477395 c -4.290231,-2.148778 -6.279924,-2.475364 -15,-2.462082 -11.542375,0.01758 -14.40443,0.966409 -9.949278,3.298384 4.548969,2.381082 8.82512,7.499348 13.730871,16.434931 C 77.238851,68.501748 81.273492,73.297846 90.053861,80 101.55148,88.77626 101,87.91606 101,97.073865 c 0,4.440625 -0.9558,14.602615 -2.124,22.582195 -2.094807,14.30892 -2.099937,14.72368 -0.37323,30.17614 0.962923,8.61729 1.97281,18.2553 2.24419,21.4178 l 0.49342,5.75 -3.870189,-0.13618 C 95.241586,176.78892 92.375,176.55265 91,176.33879 Z m 19.17231,-0.63123 c -1.75151,-2.11056 -5.16636,-17.30168 -6.3726,-28.34879 -0.89548,-8.20119 -0.88787,-12.8646 0.0329,-20.1547 0.65887,-5.21657 2.0376,-11.38284 3.06384,-13.70284 3.51951,-7.95644 12.24856,-12.23149 30.48615,-14.930595 9.50299,-1.406412 10.50655,-1.810347 26.12796,-10.516612 C 172.4455,83.07431 180.45827,79 181.31669,79 c 3.90583,0 3.40297,22.92216 -0.82158,37.45066 -4.93455,16.97021 -14.94342,32.28089 -27.95524,42.76344 -7.4301,5.98582 -18.98803,12.00953 -28.03987,14.61369 -9.94403,2.86084 -13.16303,3.28317 -14.32769,1.87977 z"
         id="path17" />
      <path
         style="fill:#78ab67"
         d="M 91.5,176.28545 C 85.024212,175.38989 76.159876,172.66519 69.056995,169.38698 38.600788,155.33044 19.34699,122.28958 21.33926,87.5 22.403167,68.921772 28.719004,52.070569 39.854983,38.098444 61.305963,11.18426 95.626783,0.82969782 127.82462,11.558081 c 11.91805,3.971119 20.52973,9.582136 31.21537,20.33865 7.70357,7.754673 10.42851,11.335738 14.15578,18.603269 5.10964,9.962924 9.53423,23.20446 8.17553,24.467099 -0.47921,0.44534 -4.9213,0.441908 -9.8713,-0.0076 -4.95,-0.449534 -11.9629,-0.849315 -15.58422,-0.888404 -6.14907,-0.06637 -6.97518,0.20221 -12.5,4.063999 -3.25368,2.274288 -9.90301,7.665133 -14.77629,11.979657 C 120.41084,97.399903 111.25028,103 107.56193,103 c -0.85906,0 -1.60188,-0.1125 -1.6507,-0.25 -0.0488,-0.1375 -0.43426,-8.8 -0.85653,-19.25 C 104.61621,72.648365 103.70297,62.570124 102.92525,60 101.37066,54.862539 94.84836,47.913464 86.164985,42.143063 80.732103,38.532725 80.575467,38.496979 68.727774,38.163655 c -6.575296,-0.18499 -12.355919,0.06449 -12.845828,0.554399 -0.520992,0.520992 0.957405,2.193439 3.561502,4.028976 4.561477,3.215226 6.065327,5.23517 13.589355,18.25297 4.920481,8.513236 12.82929,16.902527 21.120863,22.404011 3.109517,2.063174 5.915874,4.728797 6.236344,5.923607 C 101.49311,93.440245 100.98625,103.5308 99,117 c -1.094934,7.425 -1.992861,16.05972 -1.995394,19.18828 -0.0025,3.12855 0.92534,12.96348 2.06194,21.85539 1.136604,8.89191 1.825724,16.79469 1.531384,17.56172 -0.52295,1.36279 -2.884649,1.53932 -9.09793,0.68006 z m 17.52302,-2.7249 C 106.5065,166.94159 103.82428,148.78427 103.76999,138 c -0.0675,-13.40679 1.44797,-22.03012 4.77441,-27.16742 3.55655,-5.49269 12.32816,-9.33893 26.67898,-11.698391 10.45082,-1.718255 12.78463,-2.503336 21.5,-7.232511 20.07124,-10.891138 25.15979,-13.351792 25.95761,-12.552216 0.45046,0.451449 0.79013,6.520003 0.75484,13.485677 -0.0494,9.743981 -0.57916,14.625211 -2.29713,21.164861 -4.4712,17.02007 -14.74568,33.46988 -27.55104,44.11016 C 142.29095,167.49688 123.0379,176 113.0809,176 c -2.39824,0 -3.34733,-0.57055 -4.05788,-2.43945 z"
         id="path16" />
      <path
         style="fill:#70a65e"
         d="M 90.803268,175.92067 C 82.381513,174.6856 70.392753,170.41173 62.844248,165.95357 25.344217,143.80598 10.629868,95.009575 29.463824,55.255864 33.81933,46.062494 37.952033,40.024115 44.947227,32.632736 52.006743,25.173392 60.818732,18.868818 70.159724,14.59435 81.529336,9.3915798 89.773923,7.6747108 103,7.7556269 c 9.31539,0.056991 13.17312,0.5641317 20.30747,2.6696381 14.17293,4.182754 23.50146,9.529561 34.05979,19.521962 11.7665,11.135804 20.22006,26.036449 24.05107,42.393559 l 0.66535,2.840787 L 165.79184,74.4811 149.5,73.780628 l -6,4.082916 c -3.3,2.245603 -9.79748,7.452562 -14.43885,11.571019 C 120.88459,96.689921 110.90641,103 107.61002,103 c -0.88551,0 -1.63587,-0.1125 -1.66746,-0.25 -0.0316,-0.1375 -0.41083,-9.250149 -0.84276,-20.25033 -0.96586,-24.597907 -1.63072,-26.577504 -11.745948,-34.972876 -11.055393,-9.175685 -12.92911,-9.863521 -26.321897,-9.66268 -6.307425,0.09459 -11.833945,0.537876 -12.281157,0.985088 -0.447211,0.447211 1.422306,2.202723 4.154483,3.901137 5.059979,3.145456 7.209657,5.940623 13.043132,16.95963 4.205378,7.943651 12.248659,16.818228 21.034588,23.208573 5.758397,4.188305 7.030669,5.6374 7.596199,8.651945 0.78067,4.161305 -0.04,14.945063 -2.125586,27.929513 -1.953713,12.16364 -1.823429,21.09347 0.580574,39.79328 1.116692,8.68631 1.764272,16.22381 1.439062,16.75 -0.663921,1.07425 -1.588803,1.06252 -9.669982,-0.12261 z m 17.804192,-5.03921 c -3.65314,-12.8926 -4.84635,-23.09389 -4.31388,-36.88146 0.28674,-7.425 1.04294,-15.21935 1.68044,-17.32078 1.71902,-5.66658 7.28958,-11.26 13.54478,-13.60037 2.94985,-1.10368 10.50121,-2.86775 16.7808,-3.920166 11.16897,-1.871834 11.78095,-2.115015 28.12071,-11.174289 12.90638,-7.1557 16.97337,-8.990422 17.89148,-8.071309 0.80616,0.807036 1.13804,5.111818 1.03219,13.388209 -0.19628,15.347115 -2.4473,24.483745 -9.53432,38.698705 -4.53927,9.10476 -6.50221,11.77609 -14.77227,20.10327 -5.90663,5.94743 -12.2022,11.15988 -16.53739,13.69223 -7.83173,4.57481 -20.22915,9.02978 -27.53686,9.89527 l -4.83084,0.57214 z"
         id="path15" />
      <path
         style="fill:#69a256"
         d="M 91.538918,175.88765 C 82.252068,174.53466 75.248234,172.20151 65.695361,167.2785 55.554303,162.05237 43.19376,151.12072 36.83057,141.7505 31.703657,134.20079 26.465832,123.06745 24.571457,115.69296 22.066457,105.9414 20.779684,93.864661 21.460956,86.5 23.577032,63.62486 32.675333,44.095325 47.912761,29.721108 56.460842,21.657281 66.328832,15.697789 77.770707,11.68925 85.354151,9.0324705 88.218481,8.575021 99.591712,8.2043135 110.59802,7.8455659 114.02055,8.1157236 121.0776,9.9003024 142.4982,15.317117 161.54277,29.981106 172.50693,49.5 c 4.18432,7.449103 9.73214,23.660933 8.51387,24.879202 -0.51859,0.518583 -6.64501,0.457412 -14.70487,-0.146825 -13.56122,-1.016668 -13.90985,-0.991534 -18.91028,1.363324 -2.80189,1.319498 -8.59476,5.43776 -12.87304,9.151693 -4.27829,3.713933 -10.17875,8.620407 -13.11213,10.903276 -5.27418,4.104563 -13.93058,8.17257 -15.03674,7.0664 -0.31442,-0.31442 -0.91155,-9.716888 -1.32695,-20.894372 -0.66095,-17.78485 -1.01863,-20.838219 -2.86422,-24.450911 C 98.727063,50.588167 85.671901,40.107869 78.07376,38.009921 74.201759,36.94081 53.768232,37.852232 54.217975,39.07399 c 0.155114,0.421376 2.487152,2.26461 5.182308,4.096074 3.925907,2.667809 6.035596,5.318344 10.609943,13.329936 6.772448,11.861387 12.906823,18.9402 22.677497,26.168886 6.688674,4.948513 7.235757,5.638038 7.879537,9.931085 0.42132,2.809562 -0.008,9.752319 -1.099063,17.756689 -2.80218,20.5653 -2.911643,31.03394 -0.513002,49.06171 1.707185,12.83092 1.868435,16.0767 0.831393,16.73469 -0.707624,0.44897 -1.511588,0.76833 -1.786588,0.70969 -0.275,-0.0587 -3.182487,-0.49744 -6.461082,-0.9751 z M 109.07479,172.25 c -4.14545,-15.5098 -4.48701,-18.09401 -4.5269,-34.25 -0.0264,-10.70394 0.41188,-17.99754 1.24776,-20.76313 1.66445,-5.50696 6.13343,-10.54003 11.79025,-13.27846 2.47391,-1.19759 10.27368,-3.16469 17.33282,-4.371334 l 12.83481,-2.193889 16.70799,-9.311842 c 12.22964,-6.815935 17.00512,-9.014703 17.81656,-8.203262 0.68884,0.68884 1.08309,5.370689 1.04126,12.365249 -0.08,13.383528 -2.60308,25.173118 -7.78943,36.398298 -4.7572,10.29635 -10.9615,18.69609 -20.1426,27.27022 -5.88324,5.49429 -10.14234,8.39372 -17.80985,12.12423 -9.35784,4.55292 -20.05101,7.91413 -25.28892,7.94914 -1.71543,0.0115 -2.43626,-0.82633 -3.21375,-3.73522 z"
         id="path14" />
      <path
         style="fill:#649e50"
         d="M 83.020616,173.93185 C 46.88635,164.47228 21.866628,131.4371 21.725585,93 21.704394,87.225 22.238612,79.624951 22.912737,76.111002 24.985306,65.307508 29.980463,53.160274 36.132797,43.962436 51.593328,20.84869 75.288433,8.0140121 102.5,8.0140121 c 17.81909,0 33.43569,5.2883649 47.98558,16.2497189 9.404,7.084629 17.65804,17.231342 23.48408,28.869059 4.67136,9.331201 8.04831,20.182575 6.70031,21.530574 -0.35808,0.358076 -7.01808,0.117588 -14.80001,-0.534416 -13.69051,-1.147051 -14.28214,-1.11646 -18.25946,0.944149 -4.52842,2.346129 -9.27258,6.013022 -20.69626,15.996713 -8.12295,7.099025 -18.44562,12.79881 -20.12963,11.1148 -0.54099,-0.54099 -1.32981,-9.916342 -1.75294,-20.834114 C 104.60253,70.277483 103.73584,60.173461 103.07164,58.5 101.50701,54.557927 95.929475,48.830428 88.5,43.536577 79.963878,37.454189 76.867357,36.68026 64.453092,37.526418 58.703892,37.918284 54,38.588239 54,39.015206 c 0,0.426966 2.1375,2.159739 4.75,3.850605 5.01597,3.246444 6.64484,5.365463 12.786538,16.634189 4.425874,8.12055 13.342027,17.851905 22.101053,24.121748 5.484842,3.926133 6.205768,4.848026 6.778649,8.668281 0.62981,4.199852 -0.680139,19.480371 -2.49434,29.096461 -1.363289,7.22605 -1.122021,21.53457 0.601014,35.64337 0.837603,6.85858 1.787686,13.93264 2.111296,15.72014 l 0.58837,3.25 -5.361289,-0.0551 c -2.94871,-0.0303 -8.727014,-0.93617 -12.840675,-2.01309 z m 27.244884,0.8771 C 109.67302,174.08903 108.13651,168.775 106.85103,163 c -1.85644,-8.33997 -2.33866,-13.4829 -2.34414,-25 -0.0105,-22.02095 2.34964,-28.35992 12.46789,-33.48722 4.39188,-2.22553 14.34138,-4.600641 25.0953,-5.990653 2.99412,-0.387009 9.02886,-3.034622 17.5,-7.677748 7.11146,-3.89787 14.92444,-8.165414 17.3622,-9.483432 2.78564,-1.506115 4.78366,-2.04501 5.37811,-1.450558 0.55191,0.551911 0.74852,6.910689 0.47206,15.267725 -0.42391,12.814326 -0.81803,15.344956 -3.74418,24.041076 -4.1149,12.22891 -10.29408,22.8431 -18.24902,31.34695 -10.06974,10.76458 -21.69709,18.18423 -34.78925,22.19972 -9.70532,2.97671 -14.45824,3.59387 -15.7345,2.04309 z"
         id="path13" />
      <path
         style="fill:#619e4d"
         d="M 83.426526,174.03494 C 68.145281,170.02759 55.129385,162.23819 44.210755,150.56614 36.252464,142.05871 30.073915,131.4432 25.965878,119.21919 23.094787,110.67588 22.642676,107.86434 22.228979,95.980536 21.878299,85.906969 22.168898,80.475832 23.369098,74.672277 25.619164,63.792111 30.192964,52.935737 36.55503,43.374142 47.923311,26.288669 65.956989,14.038216 86.452296,9.4784427 96.928161,7.1477838 114.48555,7.8491711 124.5,10.998383 c 15.40413,4.844087 29.8919,14.473131 39.5357,26.276712 2.79724,3.423698 7.29418,10.692498 9.99321,16.15289 4.73103,9.571334 7.97313,19.903306 6.65815,21.218286 -0.34867,0.348675 -6.86662,0.08174 -14.48432,-0.593192 -11.78476,-1.044133 -14.36135,-1.012179 -17.27656,0.214253 -4.0948,1.722691 -10.6804,6.667224 -21.15279,15.881731 -8.42582,7.413757 -19.36009,13.664237 -21.01263,12.011697 -0.5459,-0.5459 -1.31178,-9.917897 -1.70194,-20.826655 C 104.54835,67.061767 103.92113,60.513108 102.82209,57.980593 100.00957,51.499787 85.986053,39.881149 78.56416,37.88264 73.988842,36.650635 54,37.627974 54,39.083686 c 0,0.490173 1.724807,1.980047 3.832904,3.310831 5.098268,3.218395 7.757506,6.524622 13.552531,16.849844 5.428257,9.671738 12.436073,17.386463 21.979094,24.196221 5.780376,4.12479 6.474002,4.996992 7.054991,8.87132 0.65846,4.390917 -0.25911,14.683158 -2.837238,31.824848 -1.521137,10.11387 -1.212448,16.97679 1.793022,39.86325 0.758376,5.775 1.182626,10.8375 0.942766,11.25 -0.772562,1.32863 -9.617964,0.69235 -16.891544,-1.21506 z m 26.599534,0.0138 c -2.43913,-4.55756 -5.14449,-20.07782 -5.67361,-32.5487 -0.65993,-15.55402 1.05219,-25.7196 5.2612,-31.23789 3.75817,-4.92722 11.61305,-8.18359 25.26086,-10.472311 12.18889,-2.044061 12.89735,-2.342198 37.39729,-15.737749 4.27449,-2.337114 8.43699,-3.99404 9.25,-3.682059 1.1753,0.451006 1.4782,2.733868 1.4782,11.140783 0,18.681136 -4.50525,34.011196 -14.33845,48.789586 -6.84219,10.28318 -16.19325,19.20171 -26.43952,25.21659 -7.634,4.48139 -18.7985,8.60942 -26.89662,9.94492 -3.6095,0.59525 -4.32685,0.40396 -5.29935,-1.41317 z"
         id="path12" />
      <path
         style="fill:#5a9945"
         d="M 83.919892,173.99012 C 70.020835,170.57028 59.109491,164.62494 48.206554,154.53075 40.605344,147.49337 32.164726,135.06646 28.137663,124.98383 23.269191,112.79454 21.6605,102.62477 22.299043,88.073408 22.602504,81.158033 23.585031,72.8 24.482437,69.5 26.928843,60.503914 35.211429,44.306186 40.960398,37.275095 50.740913,25.313352 65.168914,15.788737 81,10.843034 87.310097,8.8717311 90.641826,8.5 102,8.5 c 15.32147,0 21.84857,1.3608974 34,7.088985 15.04474,7.091976 28.23351,19.594413 36.40166,34.507368 C 176.16624,56.969506 181,69.977724 181,73.235489 c 0,1.773418 -0.57804,1.837142 -9.75,1.074847 C 165.8875,73.864651 158.75997,73.5 155.41106,73.5 c -5.33626,0 -6.75784,0.447954 -11.5,3.623746 -2.97609,1.99306 -9.6464,7.31085 -14.82292,11.81731 -9.80167,8.532923 -20.59221,14.954874 -22.28452,13.262564 -0.52233,-0.52233 -1.28608,-10.139387 -1.69722,-21.371229 C 104.41865,62.043612 104.17199,60.078328 102.02134,56.251762 99.404347,51.595448 89.131755,42.807213 82.209651,39.302798 78.92067,37.637704 75.948582,37 71.477213,37 62.807993,37 53,38.126461 53,39.122133 c 0,0.46047 1.730106,1.719854 3.84468,2.798629 4.894066,2.496766 9.391188,7.622534 13.054328,14.879175 5.740442,11.371751 13.857435,20.411828 24.819078,27.641563 2.319947,1.530118 4.552111,3.744238 4.960366,4.920266 1.216878,3.505383 0.556468,15.760474 -1.655309,30.716954 -2.208839,14.93663 -2.111593,18.20689 1.33584,44.92216 0.710767,5.50797 1.070767,10.23604 0.799997,10.50681 -1.020186,1.02018 -8.928822,0.28111 -16.239088,-1.51757 z m 26.286838,0.32406 c -1.19831,-2.33171 -3.90484,-13.9673 -5.19047,-22.31418 -2.12087,-13.76979 -0.70038,-31.65093 3.11536,-39.21596 2.16031,-4.28301 7.34645,-8.12594 13.84112,-10.25626 2.48999,-0.81675 8.95203,-2.14195 14.36008,-2.944892 10.44102,-1.550193 11.53297,-2.005213 31.9089,-13.29654 7.34356,-4.069436 12.35878,-6.269891 13.38908,-5.874529 1.45912,0.559915 1.58126,2.200808 1.06897,14.360165 -0.32002,7.595856 -1.30101,16.408156 -2.19612,19.728016 -2.52108,9.35041 -10.78232,25.32233 -16.92816,32.72817 -12.57182,15.14925 -28.04986,24.03122 -49.25596,28.26519 -2.47692,0.49454 -3.3867,0.23369 -4.1128,-1.17918 z"
         id="path11" />
      <path
         style="fill:#52953b"
         d="M 88.075186,174.91274 C 76.087857,172.56087 62.107696,165.95264 52.275095,157.99053 43.402613,150.80589 36.605884,142.01559 31.019195,130.5 23.84248,115.70696 22.48936,109.44394 22.593272,91.5 22.669962,78.256832 22.99311,75.468451 25.352342,67.692535 29.822236,52.959973 36.366258,41.851133 46.608696,31.608696 56.783658,21.433733 69.206475,14.197664 83.05785,10.377714 c 8.942211,-2.466095 29.94209,-2.466095 38.8843,0 8.9769,2.47566 18.16285,6.808069 25.42941,11.993383 8.37543,5.976584 18.55837,16.978051 23.65417,25.555548 4.14033,6.969206 9.93471,21.775074 9.96089,25.452186 0.0118,1.659762 -0.54046,1.809132 -4.73662,1.281066 -2.6125,-0.328771 -9.2672,-0.89451 -14.78822,-1.257199 -9.01377,-0.592136 -10.46079,-0.443851 -14.17895,1.453011 -4.18505,2.135054 -12.42562,8.589749 -22.02221,17.249617 -2.88167,2.600381 -8.03381,6.124354 -11.44921,7.83105 -5.3322,2.664534 -6.33061,2.887254 -7.06447,1.575914 -0.47006,-0.83994 -1.19887,-10.411321 -1.6196,-21.26973 C 104.45205,62.813928 104.10708,60.007198 102.18403,56.29539 99.700138,51.501062 88.66835,42.110655 81.926952,39.052294 78.547123,37.518971 75.341631,37.038729 68.375,37.021962 58.521927,36.998248 53,37.746254 53,39.104676 c 0,0.470072 1.6875,1.72261 3.75,2.783417 5.171467,2.659846 8.142016,6.183933 13.72536,16.282971 5.76931,10.435411 11.430839,17.10502 19.784563,23.307361 10.489057,7.78775 9.738604,6.57497 9.753197,15.761788 0.007,4.542887 -0.952413,14.673377 -2.132516,22.512197 -2.120809,14.08747 -2.125373,14.43467 -0.394341,30 0.963215,8.66118 1.978572,18.11009 2.256349,20.99759 l 0.505048,5.25 -3.87383,-0.10957 c -2.130606,-0.0603 -5.864996,-0.50022 -8.298644,-0.97769 z m 23.020714,0.14653 c -1.63176,-1.00849 -4.93634,-15.37284 -6.28441,-27.31711 -0.95612,-8.47147 -0.95286,-12.82674 0.0153,-20.49247 0.67623,-5.35404 2.13266,-11.60028 3.23651,-13.88053 3.58732,-7.41043 11.54614,-11.15479 29.31924,-13.793746 9.49817,-1.410291 10.51448,-1.819546 26.12796,-10.521391 C 172.4455,84.07431 180.24045,80 180.83265,80 c 3.42166,0 2.579,23.02433 -1.33584,36.5 -4.70588,16.19857 -14.78057,31.78014 -26.88714,41.58377 -6.68421,5.41273 -18.27277,11.75174 -26.10967,14.28215 -6.83956,2.20839 -14.12709,3.48258 -15.4041,2.69335 z"
         id="path10" />
      <path
         style="fill:#4b9134"
         d="M 89.237554,174.88953 C 76.709287,172.80247 63.120119,166.5182 52.454503,157.87933 37.437254,145.71574 27.028997,127.57642 23.519614,107.45213 22.683826,102.65937 22,95.705911 22,92 22,76.893098 26.862253,59.573089 34.747024,46.593355 39.674206,38.482338 50.839841,26.924863 58.970994,21.519283 85.520172,3.8694245 119.93765,3.9343287 146.22874,21.683833 157.24425,29.120567 167.48927,40.956967 173.7673,53.5 c 3.68691,7.366156 7.55407,19.597587 6.50504,20.574747 -0.42479,0.395684 -5.72234,0.281037 -11.77234,-0.254772 -16.28793,-1.442516 -19.15707,-0.96354 -26.65443,4.449711 -3.49006,2.5199 -9.88601,7.717994 -14.21322,11.55132 C 120.69993,95.962197 111.02867,102 108.12422,102 106.77764,102 106.17293,96.374514 105.5981,78.5 105.33279,70.25 104.59927,61.742738 103.96805,59.594974 102.60154,54.945313 95.030609,47.033809 86.565194,41.409257 L 80.681438,37.5 H 67.090719 C 56.043923,37.5 53.5,37.764682 53.5,38.914044 c 0,0.777724 1.575,2.283063 3.5,3.345198 5.560271,3.067928 7.413305,5.253613 12.61279,14.876999 5.730204,10.605659 13.079655,19.11607 22.01407,25.491536 3.526215,2.516255 6.852714,5.399799 7.39222,6.407875 1.57168,2.936702 1.19284,12.288298 -1.205533,29.758548 -2.412737,17.5749 -2.473604,15.87753 1.881067,52.4558 0.561596,4.7173 0.545666,4.7492 -2.314562,4.6331 -1.584028,-0.0643 -5.248153,-0.5114 -8.142498,-0.99357 z m 18.855856,-8.72031 c -3.26717,-13.91635 -4.30587,-27.10938 -3.04106,-38.62588 0.60143,-5.47616 1.68027,-11.32616 2.39742,-13 1.76596,-4.12177 6.10549,-8.01836 11.6702,-10.479 2.54098,-1.12359 9.88925,-2.92994 16.32949,-4.01411 9.92384,-1.670604 12.99365,-2.663483 20.13003,-6.510721 4.63128,-2.49673 12.27044,-6.61458 16.97591,-9.150777 4.70547,-2.536197 8.86797,-4.296757 9.25,-3.912355 0.38203,0.384402 0.66031,6.171972 0.6184,12.861268 -0.0833,13.292975 -2.08847,23.133695 -6.96108,34.162355 -7.95713,18.01019 -23.23917,33.53643 -40.88337,41.53669 C 127.49922,172.24698 117.62413,175 113.18897,175 c -2.97843,0 -3.05245,-0.12828 -5.09556,-8.83078 z"
         id="path9" />
      <path
         style="fill:#438c2a"
         d="M 90.163913,174.87893 C 81.727561,173.47617 70.108875,169.24032 62.5,164.79342 58.283984,162.32943 51.877307,157.06462 46.391165,151.55567 38.522911,143.65471 36.580329,140.98512 32.127968,131.95449 24.637692,116.76211 22.694824,108.53301 22.694824,92 c 0,-10.723503 0.445985,-15.145332 2.168488,-21.5 C 27.325138,61.41781 32.35725,50.260096 37.150375,43.255864 45.179379,31.523015 56.968189,21.656732 70.340669,15.478266 81.154066,10.482169 89.630204,8.6879473 102.5,8.6708071 c 13.41763,-0.01787 21.60501,1.8710759 34,7.8442819 10.68538,5.149337 18.83301,11.519105 26.67038,20.850753 6.38348,7.600547 13.93658,22.038899 16.20553,30.978138 l 1.48331,5.843981 L 165.17961,73.48793 149.5,72.787899 l -6,4.078498 c -3.3,2.243174 -10.3381,7.815838 -15.64022,12.383697 -9.10752,7.84626 -19.06237,13.880646 -20.51023,12.432786 -0.36095,-0.36094 -0.97879,-9.324752 -1.37299,-19.919571 C 105.42647,66.978412 104.85299,61.505245 103.50981,58.221192 101.48804,53.277963 91.295583,43.567271 83.909351,39.547179 79.334873,37.057436 78.526977,36.95358 65.810568,37.220553 56.134407,37.423698 52.5,37.834091 52.5,38.723566 c 0,0.672961 2.436271,2.697961 5.413936,4.5 4.737256,2.866917 6.125998,4.52632 11.110955,13.276434 6.615025,11.611378 13.77178,19.884923 23.120685,26.7286 3.655066,2.675617 6.911421,5.856253 7.236345,7.068079 C 100.45101,94.283913 100.01988,102.30272 98,116 c -1.094934,7.425 -1.984403,16.65 -1.976599,20.5 0.0078,3.85 0.897274,13.75 1.976599,22 1.079325,8.25 1.970867,15.5625 1.981204,16.25 0.02104,1.39872 -2.019459,1.42552 -9.817291,0.12893 z m 19.896077,-2.22113 c -0.54237,-1.42656 -1.79025,-6.32066 -2.77306,-10.87577 C 105.97785,155.71474 105.5,149.08766 105.5,137 c 0,-13.54474 0.32506,-17.34241 1.81491,-21.2034 0.9982,-2.58687 3.31964,-6.02457 5.15874,-7.63932 4.2223,-3.70723 10.2792,-5.71879 24.33455,-8.08177 10.83449,-1.821491 11.57763,-2.119532 27.69535,-11.107444 9.10917,-5.079651 16.88484,-8.912613 17.27929,-8.517693 0.39444,0.39492 0.6559,6.192644 0.58102,12.883832 -0.0995,8.891265 -0.70939,14.319065 -2.2659,20.165795 -7.27767,27.33708 -26.45618,48.75447 -51.7912,57.83723 -3.95628,1.41836 -9.4584,2.87931 -12.22693,3.24657 -4.76734,0.63241 -5.08588,0.5305 -6.01984,-1.926 z"
         id="path8" />
      <path
         style="fill:#3c8822"
         d="M 91.5,174.88338 C 88.2,174.40337 82.575,173.06953 79,171.91929 47.494617,161.78256 25.999612,133.66522 22.490552,98 21.61389,89.089822 23.516363,75.28011 27.105624,64.5 36.036093,37.677932 56.952461,17.856029 83.621845,10.941036 94.448512,8.133835 110.57802,8.1407965 121.44198,10.957359 136.99746,14.990235 152.73884,24.887331 162.58667,36.826308 170.44377,46.351839 180,65.801298 180,72.267053 c 0,1.877 -0.48244,1.92158 -12.25,1.131964 -6.7375,-0.452094 -13.68064,-0.76103 -15.42919,-0.686525 -4.16444,0.177444 -11.52394,5.02999 -23.7968,15.690607 -9.04659,7.858173 -19.87258,14.581661 -21.25427,13.199971 -0.29906,-0.29906 -0.84508,-9.460273 -1.21338,-20.358252 C 105.45826,63.547211 105.14633,60.933723 103.1366,56.782175 101.65526,53.72214 98.599638,50.267603 94.193238,46.671253 82.287485,36.954192 79.985605,36.272877 60.75,36.772657 53.794733,36.953369 52,37.3035 52,38.479676 c 0,0.813822 1.6875,2.349389 3.75,3.412371 5.220871,2.69076 9.320422,7.391987 13.802817,15.828603 5.555243,10.455896 11.450356,17.380677 20.751558,24.37612 5.064428,3.808961 8.499665,7.164792 8.991423,8.783584 0.943582,3.106114 0.138417,15.091856 -1.855395,27.619646 -1.910186,12.00234 -1.760146,23.99251 0.518935,41.46989 1.037795,7.95844 1.669938,14.82094 1.404764,15.25 -0.265175,0.42906 -0.793078,0.72524 -1.173119,0.65817 C 97.810942,175.81099 94.8,175.36338 91.5,174.88338 Z M 110.51103,173.75 c -1.17082,-3.43395 -3.49284,-14.10403 -4.57882,-21.04053 -1.35141,-8.63188 -0.74352,-29.8251 1.02812,-35.84375 1.51789,-5.15663 4.52392,-8.57664 9.88832,-11.25012 5.3428,-2.66271 10.37368,-3.97438 21.64148,-5.642434 8.504,-1.258912 11.52435,-2.560231 29.25319,-12.603744 C 173.92714,83.86624 179.60269,81 180.35564,81 c 2.06679,0 2.8311,9.524012 1.62132,20.20337 -1.17836,10.40207 -5.59306,24.63115 -10.17545,32.79663 -6.33837,11.29451 -15.0466,20.95841 -25.12686,27.88436 -6.5885,4.52684 -17.83092,9.54905 -25.73854,11.49793 -7.89195,1.94502 -9.86357,2.01456 -10.42508,0.36771 z"
         id="path7" />
      <path
         style="fill:#34841a"
         d="M 85.481074,173.53044 C 69.544077,170.06032 53.100351,159.96166 42.402393,147.07432 35.674471,138.9695 28.839977,125.94403 25.799487,115.43179 23.841825,108.66334 23.508043,105.22665 23.52372,92 23.545599,73.539404 24.700624,68.373472 32.243536,53 36.791038,43.731578 38.515729,41.385436 46.947652,32.997615 52.201444,27.771303 59.074544,21.986727 62.22121,20.143002 75.169596,12.556156 87.938355,9.0347272 102.5,9.0347272 c 20.23245,0 37.42713,6.8084128 52.66524,20.8533528 7.39579,6.81669 14.03326,15.480065 18.09034,23.61192 3.09161,6.196703 7.33431,19.243448 6.52198,20.055773 -0.33077,0.330775 -6.72401,0.06713 -14.20718,-0.585874 L 151.9646,71.782617 146.7323,74.35012 C 143.85454,75.762246 136.55,81.2505 130.5,86.546239 c -11.13123,9.743483 -21.80163,16.392771 -23.0541,14.366231 -0.36169,-0.58524 -0.98428,-9.917459 -1.38352,-20.73827 -0.64242,-17.411808 -0.97704,-20.161881 -2.90986,-23.915171 -2.34423,-4.552201 -13.02583,-14.06328 -19.623108,-17.47275 -2.219732,-1.147156 -6.629296,-2.23412 -10,-2.465013 -8.221835,-0.563197 -21.769778,0.883907 -22.26493,2.378196 -0.218601,0.659705 1.823845,2.325082 4.538769,3.700838 2.714925,1.375756 6.007344,3.78065 7.316488,5.344207 1.309144,1.563558 4.325036,6.467805 6.701983,10.898327 5.408953,10.082046 11.242582,16.793765 21.155382,24.339737 6.761503,5.147093 7.826661,6.388778 8.364204,9.750388 0.634382,3.967206 -0.328306,14.511811 -2.873119,31.470121 -1.143982,7.62336 -1.23772,11.91009 -0.437339,20 1.242901,12.56271 2.834293,25.5141 3.50768,28.54692 0.459285,2.06855 0.155291,2.24359 -3.769478,2.1705 -2.347979,-0.0437 -6.977569,-0.66925 -10.287978,-1.39006 z M 109.93265,170.75 c -3.61051,-13.40803 -4.32805,-18.89471 -4.3484,-33.25 -0.0131,-9.27956 0.46395,-16.64241 1.25105,-19.30667 1.78249,-6.03361 7.23717,-11.7026 13.52319,-14.0545 2.86168,-1.07069 10.1392,-2.70554 16.17228,-3.633 10.72464,-1.648698 11.33152,-1.886317 27.21696,-10.656483 8.93626,-4.933601 16.76011,-8.653518 17.38635,-8.266481 1.63623,1.011244 0.40783,25.343614 -1.66179,32.917134 -4.03478,14.7648 -14.86417,32.45809 -25.20137,41.17454 -10.68621,9.01075 -23.13664,15.34048 -35.20775,17.89942 -3.60974,0.76522 -6.88333,1.39913 -7.27463,1.40868 -0.3913,0.01 -1.22645,-1.89514 -1.85589,-4.23264 z"
         id="path6" />
      <path
         style="fill:#308115"
         d="M 86.5,173.34017 C 70.936799,170.01237 56.653591,161.80665 45.312814,149.6781 37.615528,141.44613 31.599203,131.4345 27.916504,120.72929 24.038965,109.45771 22.646951,99.430799 23.303355,87.5 23.987102,75.072224 26.780608,64.18819 31.924166,53.911676 41.860153,34.060181 57.840136,20.123474 79,12.85518 87.956452,9.7786889 89.301018,9.5919831 102.5,9.5919831 c 13.10213,0 14.58669,0.2020687 23.14792,3.1507459 21.36259,7.357749 37.3062,21.166443 47.17188,40.855346 3.22107,6.428289 7.69004,19.22542 6.9665,19.948958 -0.2344,0.234398 -5.56971,-0.05884 -11.85624,-0.651646 -6.28653,-0.592803 -13.2859,-0.873439 -15.55415,-0.623635 -5.11684,0.563522 -11.95402,5.036641 -23.87591,15.620443 -9.19197,8.160277 -18.97748,14.030325 -20.63153,12.376275 -0.49741,-0.497415 -1.16128,-8.973809 -1.47526,-18.836431 C 106.03074,70.046151 105.29006,61.802748 104.36424,58.850675 102.70591,53.562891 96.175604,46.794872 86.578653,40.417674 L 80.683004,36.5 68.242878,36.166345 c -6.84207,-0.18351 -13.520746,-0.06244 -14.841502,0.269052 -3.770421,0.946316 -3.096241,4.180173 1.164625,5.586385 5.113787,1.687702 9.577774,6.620244 14.572231,16.101781 5.005799,9.503069 14.23426,19.900434 23.58654,26.574083 L 99,89.175555 v 7.857374 c 0,4.321551 -0.928491,14.069551 -2.063314,21.662221 -2.201805,14.73145 -2.113685,20.41192 0.647528,41.74127 0.778682,6.01503 1.415786,11.75253 1.415786,12.75 0,2.22793 -2.647365,2.26049 -12.5,0.15375 z m 23.58058,-2.96217 c -4.42521,-15.82949 -5.8329,-38.57507 -3.14803,-50.86594 2.39452,-10.96167 10.21553,-15.92147 29.6574,-18.80763 10.64061,-1.579611 15.22289,-3.474333 32.41005,-13.401214 10.71167,-6.186797 11.68988,-6.553768 12.41724,-4.658286 1.0919,2.845445 0.58659,16.071122 -0.95087,24.88759 -3.86086,22.13981 -16.76441,42.1649 -35.05087,54.39563 -8.54708,5.71663 -20.98149,10.76831 -28.75417,11.68183 l -5.49664,0.64603 z"
         id="path5" />
      <path
         style="fill:#2e8012"
         d="M 88,173.48393 C 68.351758,169.46924 50.616218,158.11596 39.353936,142.34352 33.684041,134.40303 27.741757,121.49871 25.381104,112 22.71753,101.28241 22.936062,81.424071 25.837793,70.5 28.555267,60.269599 35.605599,46.194373 41.924081,38.385465 51.526267,26.518279 67.486095,16.087211 82.5,11.865742 c 6.297604,-1.770701 10.553593,-2.2454983 20,-2.2311965 8.26098,0.012507 14.00728,0.5636945 18.44215,1.7689805 13.44576,3.654215 27.03877,11.483877 36.74337,21.164421 2.85204,2.844968 7.43903,8.62468 10.1933,12.843805 6.80656,10.426605 13.65324,28.427331 10.61998,27.92118 -0.55066,-0.09189 -7.30066,-0.47448 -15,-0.850206 L 149.5,71.799588 l -6,3.917138 c -3.3,2.154426 -10.18733,7.604522 -15.30519,12.111326 -8.84583,7.789678 -18.67655,14.023538 -20.01082,12.689278 -0.33942,-0.33943 -0.90576,-9.032186 -1.25851,-19.317237 C 106.3597,64.704085 106.0105,61.865839 103.96281,57.119599 102.09984,52.801516 100.14673,50.549727 94.070759,45.714804 82.720871,36.683188 80.844924,36.04787 65.45,36.021962 53.020982,36.001045 50,36.619162 50,39.183154 c 0,0.430735 2.1375,1.873774 4.75,3.206753 6.041188,3.082404 9.046402,6.379432 13.772724,15.110093 5.684348,10.500369 10.962816,16.932365 19.382776,23.618586 4.176975,3.316901 8.447784,6.724055 9.490687,7.571453 1.726046,1.402479 1.838348,2.494943 1.251584,12.175341 C 98.29324,106.71442 97.329168,115.55 96.50539,120.5 c -1.975535,11.87079 -1.895803,17.99068 0.482829,37.06033 1.093521,8.76682 1.993521,16.27717 2,16.68967 0.01622,1.03283 -3.323973,0.79996 -10.988219,-0.76607 z m 21.00262,-8.70146 c -2.85145,-12.14558 -3.83962,-25.11016 -2.79712,-36.69767 1.72091,-19.12815 6.22863,-23.11165 30.67951,-27.11165 11.15753,-1.825291 11.707,-2.042197 27.5,-10.855691 L 180.5,81.124274 l 0.80964,2.687863 c 1.2361,4.1036 -0.0548,20.856083 -2.2924,29.749183 -4.15121,16.49864 -15.22258,34.02095 -27.79541,43.99094 C 141.30607,165.41526 121.55134,174 113.37322,174 c -1.95934,0 -2.44906,-1.03282 -4.3706,-9.21753 z"
         id="path4" />
      <path
         style="fill:#2c7e10"
         d="M 90.830856,173.97685 C 77.191472,171.6752 63.50967,165.3988 52.705986,156.48742 40.500232,146.41955 30.383953,130.18748 25.881383,113.44602 24.246458,107.36704 23.726202,102.44544 23.667206,92.5 23.605939,82.171869 24.031596,77.855773 25.738242,71.5 30.179485,54.960241 37.196461,42.899246 48.862154,31.75391 62.198476,19.012463 76.36618,12.153994 94.029515,9.8887629 110.70181,7.750627 129.88029,12.448435 144.7001,22.30063 154.72049,28.962168 165.73682,41.000382 170.90745,50.938999 175.0953,58.988576 179,69.020735 179,71.730812 c 0,1.188359 -2.3862,1.314551 -14.75,0.780036 l -14.75,-0.637676 -5,2.95962 c -2.75,1.627791 -9.725,7.06246 -15.5,12.077042 -9.6125,8.346784 -19.59418,14.829316 -20.86977,13.553726 -0.28418,-0.28418 -0.81136,-9.167236 -1.17152,-19.740125 -0.58723,-17.239133 -0.89378,-19.725351 -2.96975,-24.085874 -2.585,-5.42974 -12.26985,-14.152609 -20.25965,-18.247295 -4.496681,-2.3045 -5.587966,-2.428998 -19,-2.167596 C 51.29532,36.484499 50.5,36.610955 50.5,38.485135 c 0,1.375236 1.409693,2.654413 4.588358,4.163543 2.523596,1.198124 5.68097,3.476904 7.016385,5.063955 1.335415,1.587051 4.670654,6.913456 7.411642,11.836457 5.445855,9.781125 15.546355,20.834026 23.733003,25.970844 3.671508,2.303736 4.891023,3.732385 5.373465,6.294959 0.74597,3.962348 -0.265839,16.625987 -2.211866,27.683377 C 94.488353,130.42273 94.641628,140.70202 97,159 c 1.098762,8.525 1.998256,15.6125 1.998875,15.75 0.0017,0.38233 -3.010099,0.0972 -8.168019,-0.77315 z M 109.63376,167.25 c -2.69375,-11.91108 -3.61848,-19.51456 -3.62621,-29.81634 -0.009,-11.40882 1.41523,-20.63429 3.81196,-24.69974 2.11715,-3.59121 7.63414,-7.19722 13.82337,-9.03523 2.71318,-0.80573 9.08913,-2.03291 14.16877,-2.72708 8.39098,-1.146678 10.35396,-1.87169 21.46203,-7.926832 6.72447,-3.665595 14.32867,-7.897392 16.89821,-9.403994 l 4.67189,-2.739277 0.69117,5.531914 c 0.9904,7.926898 -1.05611,23.002669 -4.49514,33.113689 -5.26211,15.47107 -15.43115,30.03427 -27.19878,38.95168 -7.44485,5.64165 -19.82282,11.69035 -28.48537,13.91983 -9.9565,2.56252 -9.97534,2.55421 -11.7219,-5.16862 z"
         id="path3" />
      <path
         style="fill:#287c0c"
         d="M 91.869528,173.86877 C 77.803447,171.95268 61.377956,163.96542 50.377804,153.69249 46.230342,149.81922 41.017732,143.97124 38.794224,140.69698 29.099281,126.42054 23.737038,109.3642 23.641861,92.5 23.521371,71.150737 31.975372,49.440032 46.329943,34.234776 63.145397,16.4228 87.833262,7.1888821 110.97504,10.05579 128.62532,12.242386 143.67153,19.743273 156.9994,33 c 6.80277,6.766459 9.52351,10.394523 13.3405,17.789334 4.29915,8.328915 8.6601,19.095337 8.6601,21.38026 0,0.471071 -6.8625,0.570478 -15.25,0.220904 l -15.25,-0.635589 -6,4.094993 c -3.3,2.252247 -10.36149,7.852321 -15.69221,12.44461 -9.25001,7.968675 -17.07124,12.775368 -18.48579,11.36082 -0.36169,-0.361687 -0.95234,-9.319599 -1.31257,-19.906472 -0.5762,-16.934135 -0.91228,-19.746317 -2.79475,-23.385627 C 101.72742,51.554727 91.587979,42.182144 84.98613,38.588968 79.989842,35.869647 76.295209,35.45099 60.25,35.785993 50.117701,35.997543 50,36.027934 50,38.432612 c 0,1.474545 0.717106,2.660213 1.820789,3.010509 1.001435,0.317843 3.813935,1.847001 6.25,3.398128 3.552507,2.262005 5.493447,4.75369 9.805854,12.588288 6.038359,10.970231 14.342485,20.485022 23.716573,27.174232 8.615754,6.148078 8.601484,6.032446 4.432742,35.896231 -1.918389,13.74286 -1.726859,20.16269 1.291691,43.29571 0.738899,5.66264 1.082205,10.41818 0.762902,10.56788 -0.319303,0.14969 -3.114264,-0.073 -6.211023,-0.49482 z M 111.51103,172.75 c -1.16928,-3.42941 -3.49206,-14.09919 -4.57407,-21.01112 -1.35454,-8.65288 -0.75997,-27.9314 1.04911,-34.01621 1.64767,-5.54197 6.35258,-10.33153 12.35502,-12.57733 2.87125,-1.07427 10.1566,-2.72387 16.18968,-3.66577 6.03308,-0.9419 12.76923,-2.619624 14.96923,-3.728282 2.2,-1.108657 9.53005,-5.163683 16.28901,-9.01117 6.75896,-3.847486 12.59026,-6.694178 12.95846,-6.325981 0.3682,0.368197 0.60988,5.263142 0.53707,10.877656 -0.1919,14.798147 -4.55782,30.070287 -12.42993,43.480327 -1.84503,3.14299 -7.42255,9.82587 -12.39448,14.85083 -7.97258,8.05761 -10.27486,9.73436 -19.5,14.20192 -9.03437,4.37516 -20.137,8.17513 -23.88586,8.17513 -0.62537,0 -1.32883,-0.5625 -1.56324,-1.25 z"
         id="path2" />
    </g>
  </g>
</svg>
