<?xml version="1.0" encoding="utf-8"?>
<svg viewBox="0 0 500 500" xmlns="http://www.w3.org/2000/svg" xmlns:xlink="http://www.w3.org/1999/xlink" xmlns:bx="https://boxy-svg.com">
  <defs>
    <filter id="inner-shadow-filter-0" color-interpolation-filters="sRGB" x="-50%" y="-50%" width="200%" height="200%" bx:preset="inner-shadow 1 0 0 10 0.59 rgba(0,0,0,0.7)">
      <feOffset dx="0" dy="0"/>
      <feGaussianBlur stdDeviation="10"/>
      <feComposite operator="out" in="SourceGraphic"/>
      <feComponentTransfer result="choke">
        <feFuncA type="linear" slope="1.18"/>
      </feComponentTransfer>
      <feFlood flood-color="rgba(0,0,0,0.7)" result="color"/>
      <feComposite operator="in" in="color" in2="choke" result="shadow"/>
      <feComposite operator="over" in="shadow" in2="SourceGraphic"/>
    </filter>
    <linearGradient id="linearGradient3801-1-3-14-0-9-3-7" gradientUnits="userSpaceOnUse" x1="-18" y1="18" x2="-22" y2="5" gradientTransform="matrix(0.76342439,0,0,0.75750425,-4.596389,2.7525637)" xlink:href="#linearGradient3836-0-6-92-4-2-6-9"/>
    <linearGradient id="linearGradient3836-0-6-92-4-2-6-9">
      <stop style="stop-color:#a40000;stop-opacity:1" offset="0" id="stop3838-2-7-06-8-0-7-2"/>
      <stop style="stop-color:#ef2929;stop-opacity:1" offset="1" id="stop3840-5-5-8-7-23-5-0"/>
    </linearGradient>
    <linearGradient id="linearGradient3801-1-3-14-0-9" gradientUnits="userSpaceOnUse" x1="-18" y1="18" x2="-22" y2="5" gradientTransform="matrix(0.76342439,0,0,0.75750425,-4.596389,2.7525637)" xlink:href="#linearGradient3836-0-6-92-4-2"/>
    <linearGradient id="linearGradient3836-0-6-92-4-2">
      <stop style="stop-color:#a40000;stop-opacity:1" offset="0" id="stop3838-2-7-06-8-0"/>
      <stop style="stop-color:#ef2929;stop-opacity:1" offset="1" id="stop3840-5-5-8-7-23"/>
    </linearGradient>
    <linearGradient id="linearGradient3801-1-3-14-0-9-3" gradientUnits="userSpaceOnUse" x1="-18" y1="18" x2="-22" y2="5" gradientTransform="matrix(0.76342439,0,0,0.75750425,-4.596389,2.7525637)" xlink:href="#linearGradient3836-0-6-92-4-2-6"/>
    <linearGradient id="linearGradient3836-0-6-92-4-2-6">
      <stop style="stop-color:#a40000;stop-opacity:1" offset="0" id="stop3838-2-7-06-8-0-7"/>
      <stop style="stop-color:#ef2929;stop-opacity:1" offset="1" id="stop3840-5-5-8-7-23-5"/>
    </linearGradient>
    <linearGradient id="linearGradient3801-1-3-14-0-9-3-3" gradientUnits="userSpaceOnUse" x1="-18" y1="18" x2="-22" y2="5" gradientTransform="matrix(0.76342439,0,0,0.75750425,-4.596389,2.7525637)" xlink:href="#linearGradient3836-0-6-92-4-2-6-6"/>
    <linearGradient id="linearGradient3836-0-6-92-4-2-6-6">
      <stop style="stop-color:#a40000;stop-opacity:1" offset="0" id="stop3838-2-7-06-8-0-7-7"/>
      <stop style="stop-color:#ef2929;stop-opacity:1" offset="1" id="stop3840-5-5-8-7-23-5-5"/>
    </linearGradient>
  </defs>
  <ellipse style="fill: rgb(216, 216, 216); stroke: rgb(0, 0, 0); filter: url('#inner-shadow-filter-0');" cx="219.274" cy="281.036" rx="169.552" ry="169.552"/>
  <g id="layer1" transform="matrix(7.689695835113525, 0, 0, 7.689695835113525, 3.2220020294189453, 6.31401491165161)" style="">
    <path style="fill:none;stroke:#0b1521;stroke-width:8;stroke-linecap:butt;stroke-linejoin:miter;stroke-opacity:1" d="m 26,36 30,10e-7" id="path3165-22"/>
    <path style="fill:none;stroke:#3465a4;stroke-width:4;stroke-linecap:butt;stroke-linejoin:miter;stroke-opacity:1" d="m 26,36 30,10e-7" id="path3165-9-8"/>
    <path style="fill:none;stroke:#729fcf;stroke-width:2;stroke-linecap:butt;stroke-linejoin:miter;stroke-opacity:1" d="M 26,34.999999 56,35" id="path3165-9-1-9"/>
    <g transform="matrix(0.5613787,1.5641823e-8,0,0.56576972,49.28696,6.558916)" id="g3827-1-3-92-1-7-3-3">
      <g transform="translate(31.322131,40.570289)" id="g3797-9-5-66-7-5-5-1">
        <path style="fill:#ef2929;stroke:#280000;stroke-width:3.54880524;stroke-miterlimit:4;stroke-opacity:1;stroke-dasharray:none" id="path4250-71-6-49-2-9-6-9" d="M -26.118221,5.6643347 A 8.9379793,8.8680774 0 1 1 -12.540634,17.200906 8.9379793,8.8680774 0 1 1 -26.118221,5.6643347 z"/>
        <path style="fill:url(#linearGradient3801-1-3-14-0-9-3-7);fill-opacity:1;stroke:#ef2929;stroke-width:3.54880428;stroke-miterlimit:4;stroke-opacity:1;stroke-dasharray:none" id="path4250-7-3-2-5-7-2-2-4" d="m -23.40227,7.9744858 a 5.3439706,5.3025298 0 1 1 8.11794,6.8981452 5.3439706,5.3025298 0 0 1 -8.11794,-6.8981452 z"/>
      </g>
    </g>
    <path style="fill:none;stroke:#0b1521;stroke-width:8;stroke-linecap:butt;stroke-linejoin:miter;stroke-opacity:1" d="M 28,36 28,8.000001" id="path3165-2"/>
    <path style="fill:none;stroke:#3465a4;stroke-width:4;stroke-linecap:butt;stroke-linejoin:miter;stroke-opacity:1" d="M 28,36 28,8.000001" id="path3165-9-7"/>
    <path style="fill:none;stroke:#729fcf;stroke-width:2;stroke-linecap:butt;stroke-linejoin:miter;stroke-opacity:1" d="M 27,36 27,8.000001" id="path3165-9-1-0"/>
    <path style="fill:none;stroke:#0b1521;stroke-width:8;stroke-linecap:butt;stroke-linejoin:miter;stroke-opacity:1" d="M 8,56 28,36.000001" id="path3165"/>
    <path style="fill:none;stroke:#3465a4;stroke-width:4;stroke-linecap:butt;stroke-linejoin:miter;stroke-opacity:1" d="M 8,56 28,36.000001" id="path3165-9"/>
    <path style="fill:none;stroke:#729fcf;stroke-width:2;stroke-linecap:butt;stroke-linejoin:miter;stroke-opacity:1" d="m 7.3,55.3 20,-19.999999" id="path3165-9-1"/>
    <g transform="matrix(0.5613787,1.5641823e-8,0,0.56576972,1.28696,26.558916)" id="g3827-1-3-92-1-7">
      <g transform="translate(31.322131,40.570289)" id="g3797-9-5-66-7-5">
        <path style="fill:#ef2929;stroke:#280000;stroke-width:3.54880524;stroke-miterlimit:4;stroke-opacity:1;stroke-dasharray:none" id="path4250-71-6-49-2-9" d="M -26.118221,5.6643347 A 8.9379793,8.8680774 0 1 1 -12.540634,17.200906 8.9379793,8.8680774 0 1 1 -26.118221,5.6643347 z"/>
        <path style="fill:url(#linearGradient3801-1-3-14-0-9);fill-opacity:1;stroke:#ef2929;stroke-width:3.54880428;stroke-miterlimit:4;stroke-opacity:1;stroke-dasharray:none" id="path4250-7-3-2-5-7-2" d="m -23.40227,7.9744858 a 5.3439706,5.3025298 0 1 1 8.11794,6.8981452 5.3439706,5.3025298 0 0 1 -8.11794,-6.8981452 z"/>
      </g>
    </g>
    <g transform="matrix(0.5613787,1.5641823e-8,0,0.56576972,21.28696,6.558916)" id="g3827-1-3-92-1-7-3">
      <g transform="translate(31.322131,40.570289)" id="g3797-9-5-66-7-5-5">
        <path style="fill:#ef2929;stroke:#280000;stroke-width:3.54880524;stroke-miterlimit:4;stroke-opacity:1;stroke-dasharray:none" id="path4250-71-6-49-2-9-6" d="M -26.118221,5.6643347 A 8.9379793,8.8680774 0 1 1 -12.540634,17.200906 8.9379793,8.8680774 0 1 1 -26.118221,5.6643347 z"/>
        <path style="fill:url(#linearGradient3801-1-3-14-0-9-3);fill-opacity:1;stroke:#ef2929;stroke-width:3.54880428;stroke-miterlimit:4;stroke-opacity:1;stroke-dasharray:none" id="path4250-7-3-2-5-7-2-2" d="m -23.40227,7.9744858 a 5.3439706,5.3025298 0 1 1 8.11794,6.8981452 5.3439706,5.3025298 0 0 1 -8.11794,-6.8981452 z"/>
      </g>
    </g>
    <g transform="matrix(0.5613787,1.5641823e-8,0,0.56576972,21.28696,-21.441084)" id="g3827-1-3-92-1-7-3-2">
      <g transform="translate(31.322131,40.570289)" id="g3797-9-5-66-7-5-5-6">
        <path style="fill:#ef2929;stroke:#280000;stroke-width:3.54880524;stroke-miterlimit:4;stroke-opacity:1;stroke-dasharray:none" id="path4250-71-6-49-2-9-6-1" d="M -26.118221,5.6643347 A 8.9379793,8.8680774 0 1 1 -12.540634,17.200906 8.9379793,8.8680774 0 1 1 -26.118221,5.6643347 z"/>
        <path style="fill:url(#linearGradient3801-1-3-14-0-9-3-3);fill-opacity:1;stroke:#ef2929;stroke-width:3.54880428;stroke-miterlimit:4;stroke-opacity:1;stroke-dasharray:none" id="path4250-7-3-2-5-7-2-2-8" d="m -23.40227,7.9744858 a 5.3439706,5.3025298 0 1 1 8.11794,6.8981452 5.3439706,5.3025298 0 0 1 -8.11794,-6.8981452 z"/>
      </g>
    </g>
  </g>
</svg>