<?xml version="1.0" encoding="utf-8"?>
<!-- This work is licensed under a 
<a rel="license" href="https://creativecommons.org/publicdomain/zero/1.0/deed">CC0 1.0</a>.
-->
<svg viewBox="0 0 500 500" xmlns="http://www.w3.org/2000/svg">
  <defs>
    <clipPath id="clip0_1_1828">
      <rect width="24" height="24" fill="white"/>
    </clipPath>
  </defs>
  <g id="layer1" transform="matrix(14.273809432983398, 0, 0, 14.542703628540039, -4.152370929718014, -3825.611083984375)" style="">
    <text style="font-style: normal; font-variant: normal; font-weight: normal; font-stretch: normal; font-size: 29.4503px; line-height: 1.25; font-family: 'DejaVu Serif'; text-decoration: none rgb(0, 0, 0); letter-spacing: 0px; word-spacing: 0px; fill: rgb(0, 0, 0); stroke: rgb(128, 128, 128); stroke-width: 0.73626; stop-color: rgb(0, 0, 0); white-space: pre;" x="0.83723474" y="290.59283" id="text3201"><tspan id="tspan3199" style="font-style:normal;font-variant:normal;font-weight:normal;font-stretch:normal;font-size:29.4503px;font-family:'DejaVu Serif';-inkscape-font-specification:'DejaVu Serif, Normal';font-variant-ligatures:normal;font-variant-caps:normal;font-variant-numeric:normal;font-variant-east-asian:normal;fill:#000000;stroke:#808080;stroke-width:0.73626" x="0.83723474" y="290.59283">U</tspan></text>
    <g id="path7400" transform="translate(0,-0.29476852)">
      <g id="g9026" style="font-variation-settings:normal;opacity:1;vector-effect:none;fill:#ff0000;fill-opacity:1;stroke:#ff7f2a;stroke-width:1;stroke-linecap:butt;stroke-linejoin:miter;stroke-miterlimit:4;stroke-dasharray:none;stroke-dashoffset:0;stroke-opacity:1;-inkscape-stroke:none;stop-color:#000000;stop-opacity:1" transform="translate(-0.83630915)">
        <g id="path9028" style="font-variation-settings:normal;vector-effect:none;fill:#ff0000;fill-opacity:1;stroke:#ff7f2a;stroke-width:1;stroke-linecap:butt;stroke-linejoin:miter;stroke-miterlimit:4;stroke-dasharray:none;stroke-dashoffset:0;stroke-opacity:1;-inkscape-stroke:none;stop-color:#000000;stop-opacity:1">
          <path id="path9034" style="color:#000000;font-variation-settings:normal;vector-effect:none;fill:#ff0000;fill-opacity:1;fill-rule:evenodd;stroke:#ff7f2a;stroke-width:1;stroke-linecap:butt;stroke-linejoin:miter;stroke-miterlimit:4;stroke-dasharray:none;stroke-dashoffset:0;stroke-opacity:1;-inkscape-stroke:none;stop-color:#000000;stop-opacity:1" d="m 24.88727,283.03274 7,-2 -7,-2 0.549471,1.00046 H 10.401874 v 2 h 15.034867 z"/>
        </g>
      </g>
    </g>
  </g>
  <g id="style=stroke" clip-path="url(#clip0_1_1828)" transform="matrix(8.3246431350708, 0, 0, 8.3246431350708, 286.4171447753906, 297.0316467285156)" style="">
    <g id="web">
      <path id="vector (Stroke)" fill-rule="evenodd" clip-rule="evenodd" d="M10.4425 2.44429C10.0752 3.64002 9.32073 6.25569 8.89915 8.83258C9.99331 9.00921 11.0621 9.12209 12 9.12209C12.9379 9.12209 14.0067 9.00921 15.1009 8.83258C14.6793 6.25569 13.9248 3.64002 13.5575 2.44429C13.0509 2.3624 12.5307 2.31977 12 2.31977C11.4693 2.31977 10.9491 2.3624 10.4425 2.44429ZM15.3337 2.90893C15.737 4.305 16.2958 6.42828 16.6448 8.54737C18.1513 8.23703 19.5727 7.85824 20.605 7.56109C19.4986 5.42102 17.6172 3.74662 15.3337 2.90893ZM21.2129 9.01933C20.1222 9.33683 18.5423 9.76328 16.8594 10.1057C16.9295 10.7564 16.9709 11.3958 16.9709 12C16.9709 12.8816 16.8827 13.8411 16.7445 14.8058C18.759 14.3858 20.6068 13.849 21.5557 13.5575C21.6376 13.0509 21.6802 12.5307 21.6802 12C21.6802 10.959 21.5162 9.95751 21.2129 9.01933ZM21.0911 15.3337C19.9166 15.6729 18.229 16.1219 16.4634 16.4634C16.1219 18.229 15.6729 19.9166 15.3337 21.0911C17.9978 20.1138 20.1138 17.9978 21.0911 15.3337ZM13.5576 21.5557C13.849 20.6068 14.3858 18.759 14.8058 16.7445C13.8411 16.8827 12.8816 16.9709 12 16.9709C11.1184 16.9709 10.1589 16.8827 9.19423 16.7445C9.61421 18.759 10.151 20.6068 10.4425 21.5557C10.9491 21.6376 11.4693 21.6802 12 21.6802C12.5307 21.6802 13.0509 21.6376 13.5576 21.5557ZM8.66629 21.0911C8.32707 19.9166 7.8781 18.229 7.53658 16.4634C5.77099 16.1219 4.08335 15.6729 2.90891 15.3337C3.88622 17.9978 6.00216 20.1138 8.66629 21.0911ZM2.44429 13.5575C3.39316 13.849 5.24101 14.3858 7.25548 14.8058C7.1173 13.8411 7.02907 12.8816 7.02907 12C7.02907 11.3958 7.07048 10.7564 7.14056 10.1057C5.45769 9.76328 3.87779 9.33683 2.78712 9.01933C2.48383 9.95751 2.31977 10.959 2.31977 12C2.31977 12.5307 2.3624 13.0509 2.44429 13.5575ZM3.39504 7.56109C4.42731 7.85824 5.84865 8.23703 7.35522 8.54737C7.70416 6.42827 8.26303 4.305 8.66626 2.90893C6.38282 3.74662 4.50139 5.42102 3.39504 7.56109ZM8.68924 10.3888C8.63137 10.9544 8.59884 11.4968 8.59884 12C8.59884 12.9399 8.71224 14.012 8.88985 15.1102C9.98798 15.2878 11.0601 15.4012 12 15.4012C12.9399 15.4012 14.012 15.2878 15.1102 15.1102C15.2878 14.012 15.4012 12.9399 15.4012 12C15.4012 11.4968 15.3686 10.9544 15.3108 10.3888C14.1776 10.5703 13.0348 10.6919 12 10.6919C10.9652 10.6919 9.82236 10.5703 8.68924 10.3888ZM9.67273 0.991173C10.4243 0.833026 11.2029 0.75 12 0.75C12.7971 0.75 13.5757 0.833026 14.3273 0.991174C18.0108 1.76627 21.0281 4.34097 22.42 7.75174C22.9554 9.06356 23.25 10.4983 23.25 12C23.25 12.7971 23.167 13.5757 23.0088 14.3273C22.0943 18.6736 18.6736 22.0943 14.3273 23.0088C13.5757 23.167 12.7971 23.25 12 23.25C11.2029 23.25 10.4243 23.167 9.67273 23.0088C5.32644 22.0943 1.90572 18.6736 0.991173 14.3273C0.833026 13.5757 0.75 12.7971 0.75 12C0.75 10.4972 1.04509 9.06132 1.58123 7.74866C2.97369 4.33943 5.99026 1.76604 9.67273 0.991173Z" style="fill: rgb(37, 37, 146);"/>
    </g>
  </g>
</svg>
